G04 DipTrace 2.4.0.2*
%INBottom.gbr*%
%MOIN*%
%ADD14C,0.015*%
%ADD16C,0.008*%
%ADD18C,0.02*%
%ADD19C,0.01*%
%ADD20C,0.013*%
%ADD24R,0.0433X0.0394*%
%ADD25R,0.0394X0.0433*%
%ADD30R,0.0669X0.0669*%
%ADD31C,0.0669*%
%ADD32C,0.089*%
%ADD33R,0.0315X0.0354*%
%ADD34R,0.0354X0.0315*%
%ADD37R,0.0709X0.0157*%
%ADD42C,0.065*%
%ADD44R,0.0591X0.0591*%
%ADD45C,0.0591*%
%ADD46C,0.0591*%
%ADD47C,0.028*%
%FSLAX44Y44*%
G04*
G70*
G90*
G75*
G01*
%LNBottom*%
%LPD*%
X21275Y14605D2*
D14*
X20823D1*
X19883Y15546D1*
X18335Y17197D2*
X17163D1*
X16109Y16143D1*
X15564D1*
X21440Y13184D2*
X20818D1*
Y13560D1*
X20491Y13233D1*
Y11592D1*
X20716Y11367D1*
Y11137D1*
X20556Y10977D1*
Y10485D1*
X13285Y15047D2*
Y14457D1*
X5940Y31440D2*
Y31940D1*
X20716Y11137D2*
X20851D1*
X21440D1*
X21383Y6402D2*
Y5980D1*
X18335Y17197D2*
X19930Y18792D1*
Y25430D1*
X15440D1*
Y25940D1*
X19452Y15546D2*
X18592D1*
X18335Y15803D1*
Y17197D1*
X19883Y15546D2*
X19452D1*
X15564Y16143D2*
X14365D1*
X13580Y15358D1*
X12833Y16105D1*
X12430D1*
X12200Y15875D1*
Y14457D1*
X21383Y8449D2*
X20786D1*
X20556Y8219D1*
Y5980D1*
X21446Y10268D2*
X21893D1*
Y8449D1*
X21383D1*
X20556Y10485D2*
X20773Y10268D1*
X21446D1*
X10940Y28440D2*
Y26741D1*
X11235Y26446D1*
Y23880D1*
X9805Y22450D1*
Y14597D1*
X10940Y31440D2*
X11312D1*
Y28440D1*
X10940D1*
X8440Y31440D2*
X9493D1*
X9845Y31792D1*
X10940D1*
Y31440D1*
X5940Y31940D2*
X8440D1*
Y31440D1*
X19100Y8449D2*
X19609D1*
Y8930D1*
X19379Y9160D1*
X19196D1*
Y9643D1*
X19666D1*
Y13184D1*
Y13674D1*
X19440Y13900D1*
Y14440D1*
X19157Y13184D2*
X11660D1*
X11430Y12954D1*
Y9930D1*
X10482D1*
X10252Y10160D1*
Y12990D1*
X9786Y13456D1*
X7444D1*
X19666Y13184D2*
X19157D1*
X10412Y21510D2*
Y13150D1*
X10252Y12990D1*
X5315Y21065D2*
Y22014D1*
X7003D1*
X13875Y14752D2*
X14233Y15109D1*
X17270D1*
X10940Y8440D2*
X9952Y9428D1*
Y9948D1*
X7444Y12456D1*
X17940Y4440D2*
X18610D1*
X19769Y5600D1*
X20261D1*
Y9222D1*
X20421Y9382D1*
X20261Y9542D1*
Y13980D1*
X20491Y14210D1*
X21626D1*
Y14370D1*
X24210D1*
X24444Y14136D1*
Y13456D1*
X19156Y11137D2*
X18430D1*
Y10684D1*
X19196D1*
Y10312D1*
X17446Y15518D2*
Y16375D1*
X17565Y16495D1*
X19769Y5600D2*
X19609Y5760D1*
Y6402D1*
X19100D1*
X6771Y27940D2*
Y30829D1*
X6611Y30989D1*
X7062Y31440D1*
X7771D1*
X20421Y9382D2*
X20637Y9599D1*
X21446D1*
X7444Y12456D2*
X6960Y12940D1*
X5815D1*
X5565Y13190D1*
Y17190D1*
X8065D1*
X8940Y18065D1*
Y18109D1*
X8984Y18065D1*
X13444Y25852D2*
Y24705D1*
X13440D1*
X8875Y31023D2*
X10271D1*
Y31440D1*
X7771D2*
Y31023D1*
X8875D1*
X6611Y30989D2*
X5271D1*
Y31440D1*
X6556Y24440D2*
X6135D1*
Y27710D1*
X6365Y27940D1*
X6771D1*
X7003Y22014D2*
X6626D1*
Y24370D1*
X6556Y24440D1*
X17446Y15518D2*
X17855Y15109D1*
X19440D1*
X17270D2*
X17409D1*
X17446Y15146D1*
Y15518D1*
X4944Y16936D2*
X5311D1*
X5565Y17190D1*
X19196Y10312D2*
X18660D1*
X18430Y10082D1*
Y9085D1*
X17940Y8595D1*
Y8440D1*
X21275Y15275D2*
X21626D1*
Y14370D1*
X20523Y15479D2*
Y15774D1*
X20753Y16004D1*
X21045D1*
X21275Y15774D1*
Y15275D1*
X20225Y16790D2*
Y15778D1*
X20523Y15479D1*
X20225Y18277D2*
Y16790D1*
Y25374D2*
Y18277D1*
X17117Y26550D2*
X18050D1*
X18170Y26430D1*
X20290D1*
X20520Y26200D1*
Y25669D1*
X20225Y25374D1*
X17117Y28550D2*
X17469D1*
X17699Y28320D1*
Y27504D1*
X17117Y26922D1*
Y26550D1*
X15617Y28550D2*
X15969D1*
X17117D1*
X17565Y16495D2*
Y16675D1*
X17425Y16815D1*
X17311D1*
X5271Y31440D2*
X4556D1*
X4326Y31210D1*
Y30464D1*
X10940Y8440D2*
X10440Y7940D1*
Y4940D1*
X10940Y4440D1*
X12605Y15810D2*
D16*
Y14230D1*
X12765Y14070D1*
X16552D1*
X17223Y14741D1*
X20809Y8744D2*
X20848Y8705D1*
X21383D1*
X18495Y8197D2*
Y8705D1*
X19100D1*
X24444Y11456D2*
X23940Y10951D1*
Y10190D1*
X24190Y9940D1*
X24690D1*
X24940Y9690D1*
Y8190D1*
X24690Y7940D1*
X22709D1*
X22456Y8193D1*
X21383D1*
X23444Y5456D2*
X20960D1*
X20816Y5600D1*
Y7937D1*
X21383D1*
X24444Y4456D2*
X24940Y4951D1*
Y6690D1*
X24628Y7003D1*
X23002D1*
X22315Y7690D1*
X21383D1*
Y7682D1*
X22925Y6275D2*
Y6705D1*
X22204Y7426D1*
X21383D1*
X19934Y5895D2*
Y8033D1*
X19774Y8193D1*
X19100D1*
X12940Y6440D2*
X14437Y7937D1*
X19100D1*
Y7426D2*
X15926D1*
X14940Y6440D1*
X24444Y6456D2*
X24004Y6015D1*
X22418D1*
X22258Y6175D1*
Y7010D1*
X22098Y7170D1*
X21383D1*
X21998Y6861D2*
X21945Y6914D1*
X21383D1*
X24444Y5456D2*
X24045Y5855D1*
X22178D1*
X22018Y6015D1*
Y6441D1*
X21858Y6601D1*
X21738D1*
Y6658D1*
X21383D1*
X15940Y6440D2*
X16670Y7170D1*
X19100D1*
X16940Y6440D2*
X17414Y6914D1*
X19100D1*
X17940Y6440D2*
X18395D1*
X18613Y6658D1*
X19100D1*
X12300Y13910D2*
X17643D1*
X6855Y12076D2*
Y6867D1*
X6444Y6456D1*
Y5456D2*
X5605D1*
Y5440D1*
X19100Y7682D2*
X15182D1*
X13940Y6440D1*
X17117Y27881D2*
X16800D1*
Y27704D1*
X16640Y27544D1*
X15877D1*
X15617D1*
Y27881D1*
X16640Y27544D2*
Y26041D1*
X16800Y25881D1*
X17117D1*
X15877Y27544D2*
Y26651D1*
X15717Y26491D1*
X15440D1*
X15617Y27881D2*
X15300D1*
X15140Y28041D1*
Y31242D1*
X13444Y32939D1*
X10940Y9440D2*
D14*
X11440Y8940D1*
Y5940D1*
X10940Y5440D1*
X6921Y23800D2*
D16*
X7488D1*
X9565Y25877D1*
Y29772D1*
X9733Y29940D1*
X10271D1*
X5554Y27216D2*
X5271Y27499D1*
Y29940D1*
X7104Y30168D2*
Y28875D1*
X7440Y28538D1*
Y27940D1*
Y26760D1*
X7003Y26322D1*
Y25253D1*
X4944Y18936D2*
D18*
X5252D1*
Y18690D1*
X6315Y17627D1*
X7940D1*
Y18502D1*
X19444Y26936D2*
D16*
X20559D1*
X20715Y26780D1*
Y25569D1*
X20875Y25409D1*
X22546D1*
X22706Y25569D1*
Y29188D1*
X22105Y29789D1*
X10467Y23810D2*
X8873D1*
X8628Y23565D1*
Y20983D1*
X8150Y20505D1*
X4755D1*
X4375Y20125D1*
Y10600D1*
X4519Y10456D1*
X6444D1*
X10940Y26048D2*
X9934Y27054D1*
Y29215D1*
X10094Y29375D1*
X10780D1*
X10940Y29535D1*
Y29940D1*
X14145Y25940D2*
Y30663D1*
X13444Y31364D1*
X11940Y13910D2*
Y23910D1*
X19444Y31936D2*
X20875Y30505D1*
Y27083D1*
X22105Y25852D1*
X19444Y32936D2*
X19507D1*
X21866Y30577D1*
X22105D1*
X22003Y13440D2*
X21440D1*
X24444Y12456D2*
X24299D1*
X24002Y12753D1*
Y13815D1*
X23815Y14002D1*
X22502D1*
X22252Y13753D1*
Y13065D1*
X22127Y12940D1*
X21440D1*
Y12928D1*
X23444Y12456D2*
X23855Y12867D1*
Y13695D1*
X23695Y13855D1*
X22594D1*
X22434Y13695D1*
Y12832D1*
X22274Y12672D1*
X21440D1*
X23444Y13456D2*
X22405Y12416D1*
X21440D1*
X10940Y10440D2*
Y13280D1*
X11100Y13440D1*
X19157D1*
X11940Y10440D2*
Y12768D1*
X12100Y12928D1*
X19157D1*
X12940Y10440D2*
Y12512D1*
X13100Y12672D1*
X19157D1*
X13940Y10440D2*
Y12256D1*
X14100Y12416D1*
X19157D1*
X20786Y12160D2*
X21440D1*
X23076Y10855D2*
X23444D1*
Y10456D1*
X24444D2*
X24855Y10867D1*
Y11745D1*
X24695Y11905D1*
X21440D1*
X23444Y9456D2*
X22444Y10456D1*
Y11489D1*
X22284Y11649D1*
X21440D1*
X23444Y8456D2*
X22088Y9812D1*
Y11233D1*
X21928Y11393D1*
X21440D1*
X14940Y10440D2*
Y12000D1*
X15100Y12160D1*
X19157D1*
X15940Y10440D2*
Y11745D1*
X16100Y11905D1*
X19157D1*
X16940Y10440D2*
Y11489D1*
X17100Y11649D1*
X19157D1*
X17940Y10440D2*
Y11233D1*
X18100Y11393D1*
X19157D1*
X5345Y11440D2*
X6444D1*
Y11456D1*
X5940Y23540D2*
Y29940D1*
X8468Y8145D2*
Y5479D1*
X7444Y4456D1*
X19444Y24936D2*
X18954Y24445D1*
X12360D1*
X12200Y24605D1*
Y30908D1*
X13444Y32152D1*
X12200Y24605D2*
X11580Y23985D1*
Y22970D1*
X11430D1*
Y13910D1*
D47*
X19452Y15546D3*
X13285Y15047D3*
X12200Y14457D3*
X15564Y16143D3*
X20556Y5980D3*
X21383D3*
X20556Y10485D3*
X5940Y31940D3*
X9805Y14597D3*
X19883Y15546D3*
X13285Y14457D3*
X18335Y17197D3*
X10412Y21510D3*
X17223Y14741D3*
X12605Y15810D3*
X17270Y15109D3*
X17446Y15518D3*
X17311Y16815D3*
X20225Y16790D3*
X8875Y31023D3*
X8984Y18065D3*
X13875Y14752D3*
X17565Y16495D3*
X13440Y24705D3*
X20225Y25374D3*
X4326Y30464D3*
X6556Y24440D3*
X20225Y18277D3*
X5315Y21065D3*
X20523Y15479D3*
X20809Y8744D3*
X18495Y8197D3*
X22925Y6275D3*
X19934Y5895D3*
X21998Y6861D3*
X17643Y13910D3*
X12300D3*
X6855Y12076D3*
X5605Y5440D3*
X6921Y23800D3*
X5554Y27216D3*
X7104Y30168D3*
X10467Y23810D3*
X5345Y11440D3*
X8468Y8145D3*
X7940Y18502D3*
X10940Y26048D3*
X14145Y25940D3*
X11940Y23910D3*
Y13910D3*
X22003Y13440D3*
X20786Y12160D3*
X23076Y10855D3*
X5940Y23540D3*
X11580Y22970D3*
X11430Y13910D3*
X4250Y33041D2*
D19*
X12759D1*
X14121D2*
X18750D1*
X20130D2*
X21420D1*
X22782D2*
X26631D1*
X4250Y32943D2*
X12751D1*
X14129D2*
X18742D1*
X20138D2*
X21412D1*
X22790D2*
X26631D1*
X4250Y32844D2*
X12759D1*
X14121D2*
X18748D1*
X20165D2*
X21420D1*
X22784D2*
X26631D1*
X4250Y32745D2*
X12779D1*
X14202D2*
X18770D1*
X20265D2*
X21442D1*
X22762D2*
X26631D1*
X4250Y32647D2*
X12818D1*
X14301D2*
X18807D1*
X20363D2*
X21479D1*
X22723D2*
X26631D1*
X4250Y32548D2*
X12876D1*
X14399D2*
X18864D1*
X20462D2*
X21537D1*
X22665D2*
X26631D1*
X4250Y32449D2*
X12820D1*
X14498D2*
X18946D1*
X20560D2*
X21481D1*
X22721D2*
X26631D1*
X4250Y32350D2*
X5656D1*
X8574D2*
X12781D1*
X14596D2*
X18878D1*
X20659D2*
X21442D1*
X22760D2*
X26631D1*
X4250Y32252D2*
X5546D1*
X8745D2*
X12759D1*
X14695D2*
X18817D1*
X20757D2*
X21420D1*
X22782D2*
X26631D1*
X4250Y32153D2*
X5484D1*
X8823D2*
X9604D1*
X11180D2*
X12751D1*
X14795D2*
X18775D1*
X20857D2*
X21412D1*
X22790D2*
X26631D1*
X4250Y32054D2*
X5450D1*
X8863D2*
X9492D1*
X11290D2*
X12759D1*
X14893D2*
X18751D1*
X20955D2*
X21420D1*
X22784D2*
X26631D1*
X4250Y31956D2*
X4690D1*
X9021D2*
X9393D1*
X11521D2*
X12676D1*
X14991D2*
X18742D1*
X21054D2*
X21442D1*
X22760D2*
X26631D1*
X4250Y31857D2*
X4690D1*
X11521D2*
X12578D1*
X15090D2*
X18746D1*
X21152D2*
X21481D1*
X22723D2*
X26631D1*
X4250Y31758D2*
X4690D1*
X11609D2*
X12479D1*
X14004D2*
X14054D1*
X15188D2*
X18765D1*
X21251D2*
X21539D1*
X22665D2*
X26631D1*
X4250Y31660D2*
X4690D1*
X11690D2*
X12381D1*
X14062D2*
X14153D1*
X15287D2*
X18801D1*
X21349D2*
X21479D1*
X22723D2*
X26631D1*
X4250Y31561D2*
X4690D1*
X11734D2*
X12281D1*
X14099D2*
X14253D1*
X15387D2*
X18856D1*
X22762D2*
X26631D1*
X4250Y31462D2*
X4690D1*
X6521D2*
X7190D1*
X11749D2*
X12182D1*
X14121D2*
X14351D1*
X15476D2*
X18934D1*
X22784D2*
X26631D1*
X4250Y31364D2*
X4690D1*
X6521D2*
X7190D1*
X11751D2*
X12084D1*
X14129D2*
X14450D1*
X15524D2*
X18887D1*
X22790D2*
X26631D1*
X4250Y31265D2*
X4690D1*
X6521D2*
X7190D1*
X11751D2*
X11985D1*
X14121D2*
X14548D1*
X15543D2*
X18823D1*
X22782D2*
X26631D1*
X4250Y31166D2*
X4690D1*
X6521D2*
X7190D1*
X11751D2*
X11889D1*
X14205D2*
X14646D1*
X15545D2*
X18779D1*
X22760D2*
X26631D1*
X4250Y31068D2*
X4690D1*
X6521D2*
X7190D1*
X11751D2*
X11828D1*
X14304D2*
X14737D1*
X15545D2*
X18753D1*
X22721D2*
X26631D1*
X4250Y30969D2*
X4690D1*
X6521D2*
X7190D1*
X9021D2*
X9690D1*
X11751D2*
X11801D1*
X12823D2*
X12876D1*
X14404D2*
X14737D1*
X15545D2*
X18742D1*
X22666D2*
X26631D1*
X4250Y30870D2*
X10873D1*
X11751D2*
X11797D1*
X12724D2*
X12818D1*
X14488D2*
X14737D1*
X15545D2*
X18745D1*
X22724D2*
X26631D1*
X4250Y30771D2*
X10873D1*
X11751D2*
X11797D1*
X12626D2*
X12779D1*
X14532D2*
X14737D1*
X15545D2*
X18762D1*
X22762D2*
X26631D1*
X4250Y30673D2*
X10873D1*
X11751D2*
X11797D1*
X12604D2*
X12757D1*
X14549D2*
X14737D1*
X15545D2*
X18795D1*
X20085D2*
X20140D1*
X22784D2*
X26631D1*
X4250Y30574D2*
X6812D1*
X7395D2*
X10873D1*
X11751D2*
X11797D1*
X12604D2*
X12751D1*
X14549D2*
X14737D1*
X15545D2*
X18846D1*
X20034D2*
X20239D1*
X22790D2*
X26631D1*
X4250Y30475D2*
X4690D1*
X6521D2*
X6707D1*
X7501D2*
X7685D1*
X8493D2*
X9690D1*
X11751D2*
X11797D1*
X12604D2*
X12759D1*
X14549D2*
X14737D1*
X15545D2*
X18921D1*
X19959D2*
X20337D1*
X21279D2*
X21400D1*
X22782D2*
X26631D1*
X4250Y30377D2*
X4690D1*
X6521D2*
X6646D1*
X8660D2*
X9690D1*
X11751D2*
X11797D1*
X12604D2*
X12782D1*
X14549D2*
X14737D1*
X15545D2*
X18898D1*
X19982D2*
X20435D1*
X21279D2*
X21443D1*
X22760D2*
X26631D1*
X4250Y30278D2*
X4690D1*
X6521D2*
X6612D1*
X8774D2*
X9521D1*
X11751D2*
X11797D1*
X12604D2*
X12821D1*
X14549D2*
X14737D1*
X15545D2*
X18831D1*
X20049D2*
X20471D1*
X21279D2*
X21482D1*
X22721D2*
X26631D1*
X4250Y30179D2*
X4690D1*
X6521D2*
X6600D1*
X8859D2*
X9406D1*
X11751D2*
X11797D1*
X12604D2*
X12875D1*
X14549D2*
X14737D1*
X15545D2*
X18784D1*
X20096D2*
X20471D1*
X21279D2*
X21535D1*
X22668D2*
X26631D1*
X4250Y30081D2*
X4690D1*
X6521D2*
X6607D1*
X8923D2*
X9306D1*
X11751D2*
X11797D1*
X12604D2*
X12817D1*
X14549D2*
X14737D1*
X15545D2*
X18756D1*
X20124D2*
X20471D1*
X21279D2*
X21478D1*
X22724D2*
X26631D1*
X4250Y29982D2*
X4690D1*
X6521D2*
X6635D1*
X8971D2*
X9221D1*
X11751D2*
X11797D1*
X12604D2*
X12779D1*
X14549D2*
X14737D1*
X15545D2*
X18743D1*
X20137D2*
X20471D1*
X21279D2*
X21440D1*
X22762D2*
X26631D1*
X4250Y29883D2*
X4690D1*
X6521D2*
X6690D1*
X9005D2*
X9178D1*
X11751D2*
X11797D1*
X12604D2*
X12757D1*
X14549D2*
X14737D1*
X15545D2*
X18743D1*
X20137D2*
X20471D1*
X21279D2*
X21420D1*
X22784D2*
X26631D1*
X4250Y29785D2*
X4690D1*
X6521D2*
X6700D1*
X9029D2*
X9162D1*
X11751D2*
X11797D1*
X12604D2*
X12751D1*
X14549D2*
X14737D1*
X15545D2*
X18759D1*
X20121D2*
X20471D1*
X21279D2*
X21412D1*
X22790D2*
X26631D1*
X4250Y29686D2*
X4690D1*
X6521D2*
X6700D1*
X9041D2*
X9160D1*
X11751D2*
X11797D1*
X12604D2*
X12759D1*
X14549D2*
X14737D1*
X15545D2*
X18790D1*
X20090D2*
X20471D1*
X21279D2*
X21421D1*
X22782D2*
X26631D1*
X4250Y29587D2*
X4690D1*
X6521D2*
X6700D1*
X9043D2*
X9160D1*
X11751D2*
X11797D1*
X12604D2*
X12782D1*
X14549D2*
X14737D1*
X15545D2*
X18839D1*
X20041D2*
X20471D1*
X21279D2*
X21443D1*
X22871D2*
X26631D1*
X4250Y29489D2*
X4690D1*
X6521D2*
X6700D1*
X9035D2*
X9160D1*
X11751D2*
X11797D1*
X12604D2*
X12821D1*
X14549D2*
X14737D1*
X15545D2*
X18910D1*
X19970D2*
X20471D1*
X21279D2*
X21484D1*
X22970D2*
X26631D1*
X4250Y29390D2*
X4690D1*
X6521D2*
X6700D1*
X9016D2*
X9160D1*
X11751D2*
X11797D1*
X12604D2*
X12873D1*
X14549D2*
X14737D1*
X15545D2*
X18909D1*
X19971D2*
X20471D1*
X21279D2*
X21534D1*
X23052D2*
X26631D1*
X4250Y29291D2*
X4867D1*
X6345D2*
X6700D1*
X8987D2*
X9160D1*
X11751D2*
X11797D1*
X12604D2*
X12815D1*
X14549D2*
X14737D1*
X15545D2*
X18837D1*
X20043D2*
X20471D1*
X21279D2*
X21478D1*
X23096D2*
X26631D1*
X4250Y29192D2*
X4867D1*
X6345D2*
X6700D1*
X8943D2*
X9160D1*
X11751D2*
X11797D1*
X12604D2*
X12778D1*
X14549D2*
X14737D1*
X15545D2*
X18790D1*
X20090D2*
X20471D1*
X21279D2*
X21440D1*
X23110D2*
X26631D1*
X4250Y29094D2*
X4867D1*
X6345D2*
X6700D1*
X8885D2*
X9160D1*
X11751D2*
X11797D1*
X12604D2*
X12757D1*
X14549D2*
X14737D1*
X16177D2*
X16556D1*
X17677D2*
X18759D1*
X20121D2*
X20471D1*
X21279D2*
X21418D1*
X23110D2*
X26631D1*
X4250Y28995D2*
X4867D1*
X6345D2*
X6700D1*
X8810D2*
X9160D1*
X11751D2*
X11797D1*
X12604D2*
X12751D1*
X14549D2*
X14737D1*
X16177D2*
X16556D1*
X17677D2*
X18743D1*
X20137D2*
X20471D1*
X21279D2*
X21412D1*
X23110D2*
X26631D1*
X4250Y28896D2*
X4867D1*
X6345D2*
X6700D1*
X8710D2*
X9160D1*
X11751D2*
X11797D1*
X12604D2*
X12760D1*
X14549D2*
X14737D1*
X16177D2*
X16556D1*
X17677D2*
X18743D1*
X20137D2*
X20471D1*
X21279D2*
X21421D1*
X23110D2*
X26631D1*
X4250Y28798D2*
X4867D1*
X6345D2*
X6707D1*
X8570D2*
X9160D1*
X11751D2*
X11797D1*
X12604D2*
X12782D1*
X14549D2*
X14737D1*
X16177D2*
X16556D1*
X17677D2*
X18756D1*
X20124D2*
X20471D1*
X21279D2*
X21445D1*
X23110D2*
X26631D1*
X4250Y28699D2*
X4867D1*
X6345D2*
X6742D1*
X7810D2*
X7859D1*
X8321D2*
X9160D1*
X11751D2*
X11797D1*
X12604D2*
X12823D1*
X14549D2*
X14737D1*
X16177D2*
X16556D1*
X17677D2*
X18785D1*
X20095D2*
X20471D1*
X21279D2*
X21484D1*
X23110D2*
X26631D1*
X4250Y28600D2*
X4867D1*
X6345D2*
X6810D1*
X7838D2*
X9160D1*
X11751D2*
X11797D1*
X12604D2*
X12871D1*
X14549D2*
X14737D1*
X16177D2*
X16556D1*
X17677D2*
X18831D1*
X20049D2*
X20471D1*
X21279D2*
X21532D1*
X23110D2*
X26631D1*
X4250Y28502D2*
X4867D1*
X6345D2*
X6909D1*
X7845D2*
X9160D1*
X11751D2*
X11797D1*
X12604D2*
X12815D1*
X14549D2*
X14737D1*
X16177D2*
X16556D1*
X17677D2*
X18900D1*
X19980D2*
X20471D1*
X21279D2*
X21476D1*
X23110D2*
X26631D1*
X4250Y28403D2*
X4867D1*
X8021D2*
X9160D1*
X11749D2*
X11796D1*
X12604D2*
X12778D1*
X14549D2*
X14737D1*
X16177D2*
X16556D1*
X17677D2*
X18920D1*
X19960D2*
X20471D1*
X21279D2*
X21439D1*
X23110D2*
X26631D1*
X4250Y28304D2*
X4867D1*
X8021D2*
X9160D1*
X11729D2*
X11796D1*
X12604D2*
X12757D1*
X14549D2*
X14737D1*
X16177D2*
X16556D1*
X17677D2*
X18846D1*
X20034D2*
X20471D1*
X21279D2*
X21418D1*
X23110D2*
X26631D1*
X4250Y28206D2*
X4867D1*
X8021D2*
X9160D1*
X11680D2*
X11796D1*
X12604D2*
X12751D1*
X14549D2*
X14737D1*
X16177D2*
X16556D1*
X17677D2*
X18795D1*
X20085D2*
X20471D1*
X21279D2*
X21414D1*
X23110D2*
X26631D1*
X4250Y28107D2*
X4867D1*
X8021D2*
X9160D1*
X11591D2*
X11796D1*
X12604D2*
X12760D1*
X14549D2*
X14737D1*
X16177D2*
X16468D1*
X17677D2*
X18762D1*
X20118D2*
X20471D1*
X21279D2*
X21421D1*
X23110D2*
X26631D1*
X4250Y28008D2*
X4867D1*
X8021D2*
X9160D1*
X11480D2*
X11796D1*
X12604D2*
X12784D1*
X14549D2*
X14737D1*
X16177D2*
X16418D1*
X17677D2*
X18745D1*
X20135D2*
X20471D1*
X21279D2*
X21445D1*
X23110D2*
X26631D1*
X4250Y27910D2*
X4867D1*
X8021D2*
X9160D1*
X10338D2*
X10501D1*
X11379D2*
X11796D1*
X12604D2*
X12825D1*
X14549D2*
X14759D1*
X17677D2*
X18742D1*
X20138D2*
X20471D1*
X21279D2*
X21485D1*
X23110D2*
X26631D1*
X4250Y27811D2*
X4867D1*
X8021D2*
X9160D1*
X10338D2*
X10501D1*
X11379D2*
X11796D1*
X12604D2*
X12870D1*
X14549D2*
X14810D1*
X17677D2*
X18754D1*
X20126D2*
X20471D1*
X21279D2*
X21531D1*
X23110D2*
X26631D1*
X4250Y27712D2*
X4867D1*
X8021D2*
X9160D1*
X10338D2*
X10501D1*
X11379D2*
X11796D1*
X12604D2*
X12814D1*
X14549D2*
X14903D1*
X17677D2*
X18781D1*
X20099D2*
X20471D1*
X21279D2*
X21475D1*
X23110D2*
X26631D1*
X4250Y27613D2*
X4867D1*
X8021D2*
X9160D1*
X10338D2*
X10501D1*
X11379D2*
X11796D1*
X12604D2*
X12778D1*
X14549D2*
X15001D1*
X17677D2*
X18825D1*
X20055D2*
X20471D1*
X21279D2*
X21439D1*
X23110D2*
X26631D1*
X4250Y27515D2*
X4867D1*
X8021D2*
X9160D1*
X10338D2*
X10501D1*
X11379D2*
X11796D1*
X12604D2*
X12757D1*
X14549D2*
X15056D1*
X17677D2*
X18889D1*
X19991D2*
X20471D1*
X21279D2*
X21418D1*
X23110D2*
X26631D1*
X4250Y27416D2*
X4876D1*
X8021D2*
X9160D1*
X10338D2*
X10501D1*
X11379D2*
X11796D1*
X12604D2*
X12751D1*
X14549D2*
X15056D1*
X17677D2*
X18932D1*
X19948D2*
X20471D1*
X21279D2*
X21414D1*
X23110D2*
X26631D1*
X4250Y27317D2*
X4910D1*
X6345D2*
X7035D1*
X7845D2*
X9160D1*
X10338D2*
X10501D1*
X11379D2*
X11796D1*
X12604D2*
X12760D1*
X14549D2*
X15056D1*
X17677D2*
X18854D1*
X21279D2*
X21421D1*
X23110D2*
X26631D1*
X4250Y27219D2*
X4984D1*
X6345D2*
X7035D1*
X7845D2*
X9160D1*
X10338D2*
X10501D1*
X11379D2*
X11796D1*
X12604D2*
X12784D1*
X14549D2*
X15385D1*
X17045D2*
X18801D1*
X21302D2*
X21446D1*
X23110D2*
X26631D1*
X4250Y27120D2*
X5059D1*
X6345D2*
X7035D1*
X7845D2*
X9160D1*
X10435D2*
X10501D1*
X11379D2*
X11796D1*
X12604D2*
X12825D1*
X14549D2*
X15473D1*
X17677D2*
X18765D1*
X21402D2*
X21487D1*
X23110D2*
X26631D1*
X4250Y27021D2*
X5090D1*
X6345D2*
X7035D1*
X7845D2*
X9160D1*
X11379D2*
X11796D1*
X12604D2*
X12868D1*
X14549D2*
X14918D1*
X17677D2*
X18746D1*
X23110D2*
X26631D1*
X4250Y26923D2*
X5146D1*
X6345D2*
X7035D1*
X7845D2*
X9160D1*
X11379D2*
X11796D1*
X12604D2*
X12812D1*
X14549D2*
X14918D1*
X17677D2*
X18742D1*
X23110D2*
X26631D1*
X4250Y26824D2*
X5243D1*
X6345D2*
X6937D1*
X7845D2*
X9160D1*
X11473D2*
X11796D1*
X12604D2*
X12776D1*
X14549D2*
X14918D1*
X17677D2*
X18751D1*
X23110D2*
X26631D1*
X4250Y26725D2*
X5484D1*
X6345D2*
X6839D1*
X7843D2*
X9160D1*
X11570D2*
X11796D1*
X12604D2*
X12757D1*
X14549D2*
X14918D1*
X17677D2*
X18776D1*
X23110D2*
X26631D1*
X4250Y26627D2*
X5535D1*
X6345D2*
X6740D1*
X7821D2*
X9160D1*
X11634D2*
X11796D1*
X12604D2*
X12751D1*
X14549D2*
X14918D1*
X17677D2*
X18817D1*
X23110D2*
X26631D1*
X4250Y26528D2*
X5535D1*
X6345D2*
X6656D1*
X7768D2*
X9160D1*
X11666D2*
X11796D1*
X12604D2*
X12760D1*
X14549D2*
X14918D1*
X17677D2*
X18878D1*
X20002D2*
X20310D1*
X23110D2*
X26631D1*
X4250Y26429D2*
X5535D1*
X6345D2*
X6614D1*
X7676D2*
X9160D1*
X11674D2*
X11796D1*
X12604D2*
X12785D1*
X14549D2*
X14918D1*
X17677D2*
X18945D1*
X19935D2*
X20310D1*
X23110D2*
X26631D1*
X4250Y26331D2*
X5535D1*
X6345D2*
X6598D1*
X7577D2*
X9160D1*
X9970D2*
X10090D1*
X11674D2*
X11796D1*
X12604D2*
X12826D1*
X14549D2*
X14918D1*
X16124D2*
X16237D1*
X17677D2*
X18864D1*
X20016D2*
X20310D1*
X23110D2*
X26631D1*
X4250Y26232D2*
X5535D1*
X7698D2*
X9160D1*
X9970D2*
X10189D1*
X11674D2*
X11796D1*
X12604D2*
X12867D1*
X14554D2*
X14918D1*
X16026D2*
X16237D1*
X17677D2*
X18806D1*
X20074D2*
X20310D1*
X21118D2*
X21156D1*
X23110D2*
X26631D1*
X4250Y26133D2*
X5535D1*
X7891D2*
X9160D1*
X9970D2*
X10289D1*
X11674D2*
X11796D1*
X12604D2*
X12812D1*
X14609D2*
X14918D1*
X15962D2*
X16237D1*
X17677D2*
X18770D1*
X20110D2*
X20310D1*
X21118D2*
X21254D1*
X23110D2*
X26631D1*
X4250Y26034D2*
X5535D1*
X7962D2*
X9154D1*
X9970D2*
X10387D1*
X11674D2*
X11796D1*
X12604D2*
X12776D1*
X14640D2*
X14918D1*
X15962D2*
X16237D1*
X17677D2*
X18748D1*
X20132D2*
X20310D1*
X21118D2*
X21353D1*
X23110D2*
X26631D1*
X4250Y25936D2*
X5535D1*
X7993D2*
X9056D1*
X9970D2*
X10450D1*
X11674D2*
X11796D1*
X12604D2*
X12756D1*
X14649D2*
X14918D1*
X15962D2*
X16251D1*
X17677D2*
X18742D1*
X20138D2*
X20310D1*
X21118D2*
X21418D1*
X23110D2*
X26631D1*
X4250Y25837D2*
X5535D1*
X7996D2*
X8957D1*
X9966D2*
X10484D1*
X11674D2*
X11796D1*
X12604D2*
X12751D1*
X14638D2*
X14918D1*
X20130D2*
X20310D1*
X21118D2*
X21414D1*
X23110D2*
X26631D1*
X4250Y25738D2*
X5535D1*
X7996D2*
X8859D1*
X9943D2*
X10545D1*
X11674D2*
X11796D1*
X12604D2*
X12760D1*
X14605D2*
X14918D1*
X20237D2*
X20310D1*
X23110D2*
X26631D1*
X4250Y25640D2*
X5535D1*
X7996D2*
X8760D1*
X9888D2*
X10653D1*
X11674D2*
X11796D1*
X12604D2*
X12785D1*
X14548D2*
X14918D1*
X23110D2*
X26631D1*
X4250Y25541D2*
X5535D1*
X7996D2*
X8662D1*
X9796D2*
X10796D1*
X11674D2*
X11796D1*
X12604D2*
X12828D1*
X14446D2*
X14918D1*
X23109D2*
X26631D1*
X4250Y25442D2*
X5535D1*
X7996D2*
X8564D1*
X9698D2*
X10796D1*
X11674D2*
X11796D1*
X12604D2*
X12890D1*
X13990D2*
X14918D1*
X23090D2*
X26631D1*
X4250Y25344D2*
X5535D1*
X7996D2*
X8464D1*
X9598D2*
X10796D1*
X11674D2*
X11796D1*
X12604D2*
X12982D1*
X13898D2*
X15010D1*
X23040D2*
X26631D1*
X4250Y25245D2*
X5535D1*
X7996D2*
X8365D1*
X9499D2*
X10796D1*
X11674D2*
X11796D1*
X12604D2*
X13129D1*
X13751D2*
X15043D1*
X20368D2*
X20471D1*
X22949D2*
X26631D1*
X4250Y25146D2*
X5535D1*
X7996D2*
X8267D1*
X9401D2*
X10796D1*
X11674D2*
X11796D1*
X12604D2*
X15107D1*
X20368D2*
X20570D1*
X22851D2*
X26631D1*
X4250Y25048D2*
X5535D1*
X7996D2*
X8168D1*
X9302D2*
X10796D1*
X11674D2*
X11796D1*
X12604D2*
X15235D1*
X20368D2*
X20707D1*
X22713D2*
X26631D1*
X4250Y24949D2*
X5535D1*
X7996D2*
X8070D1*
X9204D2*
X10796D1*
X11674D2*
X11796D1*
X12604D2*
X18742D1*
X20368D2*
X26631D1*
X4250Y24850D2*
X5535D1*
X9105D2*
X10796D1*
X11674D2*
X11796D1*
X12604D2*
X18742D1*
X20368D2*
X26631D1*
X4250Y24752D2*
X5535D1*
X9005D2*
X10796D1*
X11674D2*
X11779D1*
X20368D2*
X26631D1*
X4250Y24653D2*
X5535D1*
X8907D2*
X10796D1*
X20368D2*
X26631D1*
X4250Y24554D2*
X5535D1*
X8809D2*
X10796D1*
X20368D2*
X26631D1*
X4250Y24455D2*
X5535D1*
X8710D2*
X10796D1*
X20368D2*
X26631D1*
X4250Y24357D2*
X5535D1*
X8612D2*
X10796D1*
X20368D2*
X26631D1*
X4250Y24258D2*
X5535D1*
X6345D2*
X6726D1*
X8513D2*
X10250D1*
X10685D2*
X10796D1*
X20368D2*
X26631D1*
X4250Y24159D2*
X5535D1*
X6345D2*
X6573D1*
X8413D2*
X8681D1*
X19226D2*
X19490D1*
X20368D2*
X26631D1*
X4250Y24061D2*
X5535D1*
X6345D2*
X6492D1*
X8315D2*
X8556D1*
X19040D2*
X19490D1*
X20368D2*
X26631D1*
X4250Y23962D2*
X5535D1*
X6345D2*
X6445D1*
X8216D2*
X8457D1*
X12441D2*
X19490D1*
X20368D2*
X26631D1*
X4250Y23863D2*
X5535D1*
X6345D2*
X6421D1*
X8118D2*
X8359D1*
X12441D2*
X19490D1*
X20368D2*
X26631D1*
X4250Y23765D2*
X5490D1*
X8020D2*
X8278D1*
X12423D2*
X19490D1*
X20368D2*
X26631D1*
X4250Y23666D2*
X5453D1*
X7921D2*
X8237D1*
X12379D2*
X19490D1*
X20368D2*
X26631D1*
X4250Y23567D2*
X5437D1*
X6443D2*
X6476D1*
X7821D2*
X8223D1*
X12345D2*
X19490D1*
X20368D2*
X26631D1*
X4250Y23469D2*
X5442D1*
X7710D2*
X8223D1*
X12345D2*
X19490D1*
X20368D2*
X26631D1*
X4250Y23370D2*
X5467D1*
X7865D2*
X8223D1*
X9032D2*
X10109D1*
X12345D2*
X19490D1*
X20368D2*
X26631D1*
X4250Y23271D2*
X5515D1*
X8005D2*
X8223D1*
X9032D2*
X10010D1*
X12345D2*
X19490D1*
X20368D2*
X26631D1*
X4250Y23173D2*
X5601D1*
X8115D2*
X8223D1*
X9032D2*
X9910D1*
X12345D2*
X19490D1*
X20368D2*
X26631D1*
X4250Y23074D2*
X5768D1*
X9032D2*
X9812D1*
X12345D2*
X19490D1*
X20368D2*
X26631D1*
X4250Y22975D2*
X5714D1*
X9032D2*
X9714D1*
X10946D2*
X11026D1*
X12345D2*
X19490D1*
X20368D2*
X26631D1*
X4250Y22876D2*
X5645D1*
X9032D2*
X9615D1*
X10848D2*
X11026D1*
X12345D2*
X19490D1*
X20368D2*
X26631D1*
X4250Y22778D2*
X5584D1*
X9032D2*
X9517D1*
X10749D2*
X11026D1*
X12345D2*
X19490D1*
X20368D2*
X26631D1*
X4250Y22679D2*
X5539D1*
X9032D2*
X9432D1*
X10651D2*
X11026D1*
X12345D2*
X19490D1*
X20368D2*
X26631D1*
X4250Y22580D2*
X5492D1*
X9032D2*
X9387D1*
X10552D2*
X11026D1*
X12345D2*
X19490D1*
X20368D2*
X26631D1*
X4250Y22482D2*
X5462D1*
X9032D2*
X9367D1*
X10454D2*
X11026D1*
X12345D2*
X19490D1*
X20368D2*
X26631D1*
X4250Y22383D2*
X5435D1*
X9032D2*
X9367D1*
X10354D2*
X11026D1*
X12345D2*
X19490D1*
X20368D2*
X26631D1*
X4250Y22284D2*
X5412D1*
X9032D2*
X9367D1*
X10255D2*
X11026D1*
X12345D2*
X19490D1*
X20368D2*
X26631D1*
X4250Y22186D2*
X5403D1*
X9032D2*
X9367D1*
X10245D2*
X11026D1*
X12345D2*
X19490D1*
X20368D2*
X26631D1*
X4250Y22087D2*
X5393D1*
X9032D2*
X9367D1*
X10245D2*
X11026D1*
X12345D2*
X19490D1*
X20368D2*
X26631D1*
X4250Y21988D2*
X5390D1*
X9032D2*
X9367D1*
X10245D2*
X10279D1*
X10546D2*
X11026D1*
X12345D2*
X19490D1*
X20368D2*
X26631D1*
X4250Y21890D2*
X5398D1*
X9032D2*
X9367D1*
X10738D2*
X11026D1*
X12345D2*
X19490D1*
X20368D2*
X26631D1*
X4250Y21791D2*
X5407D1*
X9032D2*
X9367D1*
X10829D2*
X11026D1*
X12345D2*
X19490D1*
X20368D2*
X26631D1*
X4250Y21692D2*
X5423D1*
X9032D2*
X9367D1*
X10880D2*
X11026D1*
X12345D2*
X19490D1*
X20368D2*
X26631D1*
X4250Y21594D2*
X5450D1*
X9032D2*
X9367D1*
X10909D2*
X11026D1*
X12345D2*
X19490D1*
X20368D2*
X26631D1*
X4250Y21495D2*
X5476D1*
X9032D2*
X9367D1*
X10916D2*
X11026D1*
X12345D2*
X19490D1*
X20368D2*
X26631D1*
X4250Y21396D2*
X5517D1*
X9032D2*
X9367D1*
X10902D2*
X11026D1*
X12345D2*
X19490D1*
X20368D2*
X26631D1*
X4250Y21297D2*
X5562D1*
X9032D2*
X9367D1*
X10868D2*
X11026D1*
X12345D2*
X19490D1*
X20368D2*
X26631D1*
X4250Y21199D2*
X5612D1*
X9032D2*
X9367D1*
X10851D2*
X11026D1*
X12345D2*
X19490D1*
X20368D2*
X26631D1*
X4250Y21100D2*
X5681D1*
X9032D2*
X9367D1*
X10851D2*
X11026D1*
X12345D2*
X19490D1*
X20368D2*
X26631D1*
X4250Y21001D2*
X5750D1*
X9032D2*
X9367D1*
X10851D2*
X11026D1*
X12345D2*
X19490D1*
X20368D2*
X26631D1*
X4250Y20903D2*
X5842D1*
X9023D2*
X9367D1*
X10851D2*
X11026D1*
X12345D2*
X19490D1*
X20368D2*
X26631D1*
X4250Y20804D2*
X4489D1*
X8988D2*
X9367D1*
X10851D2*
X11026D1*
X12345D2*
X19490D1*
X20368D2*
X26631D1*
X4250Y20705D2*
X4389D1*
X8918D2*
X9367D1*
X10851D2*
X11026D1*
X12345D2*
X19490D1*
X20368D2*
X26631D1*
X4250Y20607D2*
X4290D1*
X8818D2*
X9367D1*
X10851D2*
X11026D1*
X12345D2*
X19490D1*
X20368D2*
X26631D1*
X8720Y20508D2*
X9367D1*
X10851D2*
X11026D1*
X12345D2*
X19490D1*
X20368D2*
X26631D1*
X8621Y20409D2*
X9367D1*
X10851D2*
X11026D1*
X12345D2*
X19490D1*
X20368D2*
X26631D1*
X8523Y20311D2*
X9367D1*
X10851D2*
X11026D1*
X12345D2*
X19490D1*
X20368D2*
X26631D1*
X8423Y20212D2*
X9367D1*
X10851D2*
X11026D1*
X12345D2*
X19490D1*
X20368D2*
X26631D1*
X8201Y20113D2*
X9367D1*
X10851D2*
X11026D1*
X12345D2*
X19490D1*
X20368D2*
X26631D1*
X4832Y20015D2*
X9367D1*
X10851D2*
X11026D1*
X12345D2*
X19490D1*
X20368D2*
X26631D1*
X4779Y19916D2*
X9367D1*
X10851D2*
X11026D1*
X12345D2*
X19490D1*
X20368D2*
X26631D1*
X4779Y19817D2*
X9367D1*
X10851D2*
X11026D1*
X12345D2*
X19490D1*
X20368D2*
X26631D1*
X5129Y19718D2*
X6196D1*
X7809D2*
X9367D1*
X10851D2*
X11026D1*
X12345D2*
X19490D1*
X20368D2*
X26631D1*
X5370Y19620D2*
X6081D1*
X7924D2*
X9367D1*
X10851D2*
X11026D1*
X12345D2*
X19490D1*
X20368D2*
X26631D1*
X5498Y19521D2*
X6028D1*
X7977D2*
X9367D1*
X10851D2*
X11026D1*
X12345D2*
X19490D1*
X20368D2*
X26631D1*
X5587Y19422D2*
X6009D1*
X7996D2*
X9367D1*
X10851D2*
X11026D1*
X12345D2*
X19490D1*
X20368D2*
X26631D1*
X5651Y19324D2*
X6009D1*
X7996D2*
X9367D1*
X10851D2*
X11026D1*
X12345D2*
X19490D1*
X20368D2*
X26631D1*
X5696Y19225D2*
X6009D1*
X7996D2*
X9367D1*
X10851D2*
X11026D1*
X12345D2*
X19490D1*
X20368D2*
X26631D1*
X5727Y19126D2*
X6009D1*
X7996D2*
X9367D1*
X10851D2*
X11026D1*
X12345D2*
X19490D1*
X20368D2*
X26631D1*
X5745Y19028D2*
X6009D1*
X7996D2*
X9367D1*
X10851D2*
X11026D1*
X12345D2*
X19490D1*
X20368D2*
X26631D1*
X5749Y18929D2*
X6009D1*
X8199D2*
X9367D1*
X10851D2*
X11026D1*
X12345D2*
X19451D1*
X20368D2*
X26631D1*
X5765Y18830D2*
X6009D1*
X8320D2*
X9367D1*
X10851D2*
X11026D1*
X12345D2*
X19351D1*
X20368D2*
X26631D1*
X5863Y18732D2*
X6009D1*
X8388D2*
X9367D1*
X10851D2*
X11026D1*
X12345D2*
X19253D1*
X20365D2*
X26631D1*
X5962Y18633D2*
X6009D1*
X8426D2*
X9367D1*
X10851D2*
X11026D1*
X12345D2*
X19154D1*
X20338D2*
X26631D1*
X8443Y18534D2*
X9367D1*
X10851D2*
X11026D1*
X12345D2*
X19056D1*
X20282D2*
X26631D1*
X8440Y18436D2*
X9367D1*
X10851D2*
X11026D1*
X12345D2*
X18957D1*
X20190D2*
X26631D1*
X8415Y18337D2*
X9367D1*
X10851D2*
X11026D1*
X12345D2*
X18859D1*
X20091D2*
X26631D1*
X8404Y18238D2*
X9367D1*
X10851D2*
X11026D1*
X12345D2*
X18759D1*
X19993D2*
X26631D1*
X4779Y18139D2*
X5151D1*
X8404D2*
X9367D1*
X10851D2*
X11026D1*
X12345D2*
X18660D1*
X19895D2*
X26631D1*
X4779Y18041D2*
X5250D1*
X8404D2*
X9367D1*
X10851D2*
X11026D1*
X12345D2*
X18562D1*
X19795D2*
X26631D1*
X4779Y17942D2*
X5348D1*
X8404D2*
X9367D1*
X10851D2*
X11026D1*
X12345D2*
X18464D1*
X19696D2*
X26631D1*
X4779Y17843D2*
X5448D1*
X8404D2*
X9367D1*
X10851D2*
X11026D1*
X12345D2*
X18365D1*
X19598D2*
X26631D1*
X4779Y17745D2*
X5546D1*
X8404D2*
X9367D1*
X10851D2*
X11026D1*
X12345D2*
X18267D1*
X19499D2*
X26631D1*
X5324Y17646D2*
X5645D1*
X8404D2*
X9367D1*
X10851D2*
X11026D1*
X12345D2*
X18118D1*
X19401D2*
X26631D1*
X5470Y17547D2*
X5743D1*
X8396D2*
X9367D1*
X10851D2*
X11026D1*
X12345D2*
X16906D1*
X19302D2*
X26631D1*
X5566Y17449D2*
X5842D1*
X8366D2*
X9367D1*
X10851D2*
X11026D1*
X12345D2*
X16798D1*
X19202D2*
X26631D1*
X5635Y17350D2*
X5940D1*
X8309D2*
X9367D1*
X10851D2*
X11026D1*
X12345D2*
X16700D1*
X19104D2*
X26631D1*
X5685Y17251D2*
X6051D1*
X8204D2*
X9367D1*
X10851D2*
X11026D1*
X12345D2*
X16601D1*
X19005D2*
X26631D1*
X5720Y17153D2*
X9367D1*
X10851D2*
X11026D1*
X12345D2*
X16501D1*
X18907D2*
X26631D1*
X5741Y17054D2*
X9367D1*
X10851D2*
X11026D1*
X12345D2*
X16403D1*
X18818D2*
X26631D1*
X5749Y16955D2*
X9367D1*
X10851D2*
X11026D1*
X12345D2*
X16304D1*
X18776D2*
X26631D1*
X5745Y16857D2*
X9367D1*
X10851D2*
X11026D1*
X12345D2*
X16206D1*
X18774D2*
X26631D1*
X5727Y16758D2*
X9367D1*
X10851D2*
X11026D1*
X12345D2*
X16107D1*
X17340D2*
X17896D1*
X18774D2*
X26631D1*
X5698Y16659D2*
X9367D1*
X10851D2*
X11026D1*
X12345D2*
X16009D1*
X17241D2*
X17896D1*
X18774D2*
X26631D1*
X5652Y16560D2*
X9367D1*
X10851D2*
X11026D1*
X12345D2*
X14257D1*
X17143D2*
X17896D1*
X18774D2*
X26631D1*
X5590Y16462D2*
X9367D1*
X10851D2*
X11026D1*
X13082D2*
X14068D1*
X17045D2*
X17896D1*
X18774D2*
X26631D1*
X5502Y16363D2*
X9367D1*
X10851D2*
X11026D1*
X13191D2*
X13968D1*
X16945D2*
X17896D1*
X18774D2*
X26631D1*
X5376Y16264D2*
X9367D1*
X10851D2*
X11026D1*
X13290D2*
X13870D1*
X16846D2*
X17896D1*
X18774D2*
X26631D1*
X5146Y16166D2*
X9367D1*
X10851D2*
X11026D1*
X13390D2*
X13771D1*
X16748D2*
X17896D1*
X18774D2*
X26631D1*
X4779Y16067D2*
X9367D1*
X10851D2*
X11026D1*
X13488D2*
X13673D1*
X16649D2*
X17896D1*
X18774D2*
X26631D1*
X4779Y15968D2*
X9367D1*
X10851D2*
X11026D1*
X16551D2*
X17896D1*
X20149D2*
X26631D1*
X4779Y15870D2*
X9367D1*
X10851D2*
X11026D1*
X16452D2*
X17896D1*
X20266D2*
X26631D1*
X4779Y15771D2*
X9367D1*
X10851D2*
X11026D1*
X16332D2*
X17898D1*
X20332D2*
X20714D1*
X21835D2*
X26631D1*
X4779Y15672D2*
X9367D1*
X10851D2*
X11026D1*
X14512D2*
X15404D1*
X15723D2*
X17917D1*
X20373D2*
X20714D1*
X21835D2*
X26631D1*
X4779Y15574D2*
X9367D1*
X10851D2*
X11026D1*
X12638D2*
X12748D1*
X14412D2*
X17964D1*
X20471D2*
X20714D1*
X21835D2*
X26631D1*
X4779Y15475D2*
X9367D1*
X10851D2*
X11026D1*
X12638D2*
X12846D1*
X14313D2*
X18046D1*
X20571D2*
X20714D1*
X21835D2*
X26631D1*
X4779Y15376D2*
X9367D1*
X10851D2*
X11026D1*
X12638D2*
X12907D1*
X14215D2*
X18145D1*
X20670D2*
X20714D1*
X21835D2*
X26631D1*
X4779Y15278D2*
X9367D1*
X10851D2*
X11026D1*
X12638D2*
X12839D1*
X14116D2*
X18245D1*
X21835D2*
X26631D1*
X4779Y15179D2*
X9367D1*
X10851D2*
X11026D1*
X12638D2*
X12800D1*
X14018D2*
X18360D1*
X21835D2*
X26631D1*
X4779Y15080D2*
X9367D1*
X10851D2*
X11026D1*
X12638D2*
X12782D1*
X13920D2*
X18879D1*
X21835D2*
X26631D1*
X4779Y14981D2*
X9367D1*
X10851D2*
X11026D1*
X12638D2*
X12785D1*
X13796D2*
X18879D1*
X21835D2*
X26631D1*
X4779Y14883D2*
X9367D1*
X10851D2*
X11026D1*
X12638D2*
X12809D1*
X13762D2*
X18879D1*
X21835D2*
X26631D1*
X4779Y14784D2*
X9339D1*
X10851D2*
X11026D1*
X12638D2*
X12846D1*
X13724D2*
X18879D1*
X21835D2*
X26631D1*
X4779Y14685D2*
X9309D1*
X10851D2*
X11026D1*
X12648D2*
X12837D1*
X13734D2*
X18879D1*
X20001D2*
X20128D1*
X21835D2*
X26631D1*
X4779Y14587D2*
X9301D1*
X10851D2*
X11026D1*
X12687D2*
X12800D1*
X13773D2*
X18879D1*
X20001D2*
X20226D1*
X21835D2*
X26631D1*
X4779Y14488D2*
X9314D1*
X10851D2*
X11026D1*
X12702D2*
X12782D1*
X13788D2*
X18879D1*
X20001D2*
X20325D1*
X21835D2*
X26631D1*
X4779Y14389D2*
X9346D1*
X10851D2*
X11026D1*
X12699D2*
X12785D1*
X13785D2*
X17515D1*
X17773D2*
X18879D1*
X20001D2*
X20423D1*
X21835D2*
X22418D1*
X23899D2*
X26631D1*
X4779Y14291D2*
X9407D1*
X10851D2*
X11026D1*
X17968D2*
X18879D1*
X20001D2*
X20521D1*
X21835D2*
X22225D1*
X24093D2*
X26631D1*
X4779Y14192D2*
X9512D1*
X10851D2*
X11015D1*
X18059D2*
X18879D1*
X20001D2*
X20700D1*
X21835D2*
X22125D1*
X24193D2*
X26631D1*
X4779Y14093D2*
X9973D1*
X10851D2*
X10962D1*
X18112D2*
X18879D1*
X20001D2*
X20714D1*
X21835D2*
X22026D1*
X24291D2*
X26631D1*
X4779Y13995D2*
X5781D1*
X7787D2*
X9973D1*
X10851D2*
X10934D1*
X18140D2*
X18879D1*
X20001D2*
X21932D1*
X24787D2*
X26631D1*
X4779Y13896D2*
X5781D1*
X7912D2*
X9973D1*
X10851D2*
X10925D1*
X18148D2*
X18879D1*
X20043D2*
X20542D1*
X21095D2*
X21803D1*
X24912D2*
X26631D1*
X4779Y13797D2*
X5781D1*
X10851D2*
X10925D1*
X20087D2*
X20439D1*
X24991D2*
X26631D1*
X4779Y13699D2*
X5781D1*
X20104D2*
X20340D1*
X25046D2*
X26631D1*
X4779Y13600D2*
X5781D1*
X20105D2*
X20242D1*
X25079D2*
X26631D1*
X4779Y13501D2*
X5781D1*
X20105D2*
X20146D1*
X25096D2*
X26631D1*
X4779Y13402D2*
X5781D1*
X25098D2*
X26631D1*
X4779Y13304D2*
X5781D1*
X25085D2*
X26631D1*
X4779Y13205D2*
X5781D1*
X25055D2*
X26631D1*
X4779Y13106D2*
X5781D1*
X25007D2*
X26631D1*
X4779Y13008D2*
X5781D1*
X7934D2*
X9618D1*
X24934D2*
X26631D1*
X4779Y12909D2*
X5781D1*
X7899D2*
X9717D1*
X24899D2*
X26631D1*
X4779Y12810D2*
X5781D1*
X7984D2*
X9814D1*
X24984D2*
X26631D1*
X4779Y12712D2*
X5840D1*
X8040D2*
X9814D1*
X25040D2*
X26631D1*
X4779Y12613D2*
X5804D1*
X8076D2*
X9814D1*
X25076D2*
X26631D1*
X4779Y12514D2*
X5785D1*
X8095D2*
X9814D1*
X12345D2*
X12535D1*
X25095D2*
X26631D1*
X4779Y12416D2*
X5781D1*
X8099D2*
X9814D1*
X12345D2*
X12535D1*
X25099D2*
X26631D1*
X4779Y12317D2*
X5793D1*
X8087D2*
X9814D1*
X12345D2*
X12535D1*
X25087D2*
X26631D1*
X4779Y12218D2*
X5820D1*
X8060D2*
X9814D1*
X12345D2*
X12535D1*
X13345D2*
X13535D1*
X25060D2*
X26631D1*
X4779Y12120D2*
X5865D1*
X8015D2*
X9814D1*
X12345D2*
X12535D1*
X13345D2*
X13535D1*
X25048D2*
X26631D1*
X4779Y12021D2*
X5934D1*
X7946D2*
X9814D1*
X12345D2*
X12535D1*
X13345D2*
X13535D1*
X14345D2*
X14537D1*
X25146D2*
X26631D1*
X4779Y11922D2*
X5228D1*
X5462D2*
X5995D1*
X7885D2*
X9814D1*
X12345D2*
X12535D1*
X13345D2*
X13535D1*
X14345D2*
X14535D1*
X25216D2*
X26631D1*
X4779Y11823D2*
X5023D1*
X7974D2*
X9814D1*
X12345D2*
X12535D1*
X13345D2*
X13535D1*
X14345D2*
X14535D1*
X25251D2*
X26631D1*
X4779Y11725D2*
X4931D1*
X8034D2*
X9814D1*
X12345D2*
X12535D1*
X13345D2*
X13535D1*
X14345D2*
X14535D1*
X15345D2*
X15535D1*
X25259D2*
X26631D1*
X4779Y11626D2*
X4878D1*
X8073D2*
X9814D1*
X12345D2*
X12535D1*
X13345D2*
X13535D1*
X14345D2*
X14535D1*
X15345D2*
X15535D1*
X25259D2*
X26631D1*
X4779Y11527D2*
X4848D1*
X8093D2*
X9814D1*
X12345D2*
X12535D1*
X13345D2*
X13535D1*
X14345D2*
X14535D1*
X15345D2*
X15535D1*
X25259D2*
X26631D1*
X4779Y11429D2*
X4842D1*
X8099D2*
X9814D1*
X12345D2*
X12535D1*
X13345D2*
X13535D1*
X14345D2*
X14535D1*
X15345D2*
X15535D1*
X16345D2*
X16535D1*
X25259D2*
X26631D1*
X4779Y11330D2*
X4853D1*
X8090D2*
X9814D1*
X12345D2*
X12535D1*
X13345D2*
X13535D1*
X14345D2*
X14535D1*
X15345D2*
X15535D1*
X16345D2*
X16535D1*
X25259D2*
X26631D1*
X4779Y11231D2*
X4887D1*
X8065D2*
X9814D1*
X12345D2*
X12535D1*
X13345D2*
X13535D1*
X14345D2*
X14535D1*
X15345D2*
X15535D1*
X16345D2*
X16535D1*
X25259D2*
X26631D1*
X4779Y11133D2*
X4948D1*
X8021D2*
X9814D1*
X12345D2*
X12535D1*
X13345D2*
X13535D1*
X14345D2*
X14535D1*
X15345D2*
X15535D1*
X16345D2*
X16535D1*
X25259D2*
X26631D1*
X4779Y11034D2*
X5054D1*
X5635D2*
X5923D1*
X7957D2*
X9814D1*
X12345D2*
X12535D1*
X13345D2*
X13535D1*
X14345D2*
X14535D1*
X15345D2*
X15535D1*
X16345D2*
X16535D1*
X25259D2*
X26631D1*
X4779Y10935D2*
X6010D1*
X7870D2*
X9814D1*
X25259D2*
X26631D1*
X4779Y10837D2*
X5917D1*
X7963D2*
X9814D1*
X25259D2*
X26631D1*
X8027Y10738D2*
X9814D1*
X25241D2*
X26631D1*
X8068Y10639D2*
X9814D1*
X25195D2*
X26631D1*
X8091Y10541D2*
X9814D1*
X25107D2*
X26631D1*
X8099Y10442D2*
X9814D1*
X25099D2*
X26631D1*
X8091Y10343D2*
X9814D1*
X25091D2*
X26631D1*
X8070Y10244D2*
X9814D1*
X25070D2*
X26631D1*
X8029Y10146D2*
X9814D1*
X18573D2*
X18635D1*
X20105D2*
X20187D1*
X25051D2*
X26631D1*
X4250Y10047D2*
X4498D1*
X7966D2*
X9828D1*
X18515D2*
X18635D1*
X20105D2*
X20317D1*
X25149D2*
X26631D1*
X4250Y9948D2*
X6006D1*
X7874D2*
X9868D1*
X18432D2*
X18635D1*
X20105D2*
X20476D1*
X25248D2*
X26631D1*
X4250Y9850D2*
X5926D1*
X7954D2*
X9945D1*
X18504D2*
X18635D1*
X20105D2*
X20667D1*
X25310D2*
X26631D1*
X4250Y9751D2*
X5860D1*
X8020D2*
X10045D1*
X18565D2*
X18635D1*
X20105D2*
X20885D1*
X25340D2*
X26631D1*
X4250Y9652D2*
X5817D1*
X8063D2*
X10143D1*
X20105D2*
X20885D1*
X25345D2*
X26631D1*
X4250Y9554D2*
X5790D1*
X8090D2*
X10242D1*
X20096D2*
X20885D1*
X25345D2*
X26631D1*
X4250Y9455D2*
X5781D1*
X8099D2*
X10242D1*
X20062D2*
X20885D1*
X25345D2*
X26631D1*
X4250Y9356D2*
X5787D1*
X8093D2*
X10242D1*
X19995D2*
X20885D1*
X25345D2*
X26631D1*
X4250Y9258D2*
X5807D1*
X8073D2*
X10242D1*
X19898D2*
X20885D1*
X25345D2*
X26631D1*
X4250Y9159D2*
X5845D1*
X8035D2*
X10242D1*
X18579D2*
X18635D1*
X19982D2*
X20531D1*
X25345D2*
X26631D1*
X4250Y9060D2*
X5904D1*
X7976D2*
X10242D1*
X20027D2*
X20420D1*
X25345D2*
X26631D1*
X4250Y8962D2*
X5992D1*
X7888D2*
X10242D1*
X20048D2*
X20356D1*
X25345D2*
X26631D1*
X4250Y8863D2*
X5937D1*
X7943D2*
X10242D1*
X20048D2*
X20320D1*
X22332D2*
X22450D1*
X25345D2*
X26631D1*
X4250Y8764D2*
X5868D1*
X8012D2*
X10242D1*
X20048D2*
X20306D1*
X22332D2*
X22550D1*
X25345D2*
X26631D1*
X4250Y8665D2*
X5821D1*
X8059D2*
X10242D1*
X20048D2*
X20312D1*
X22332D2*
X22648D1*
X25345D2*
X26631D1*
X4250Y8567D2*
X5793D1*
X8087D2*
X8201D1*
X8735D2*
X10242D1*
X20048D2*
X20287D1*
X22591D2*
X22746D1*
X25345D2*
X26631D1*
X4250Y8468D2*
X5781D1*
X8851D2*
X10242D1*
X20066D2*
X20196D1*
X22748D2*
X22781D1*
X25345D2*
X26631D1*
X4250Y8369D2*
X5785D1*
X8918D2*
X10242D1*
X25345D2*
X26631D1*
X4250Y8271D2*
X5803D1*
X8955D2*
X10242D1*
X25345D2*
X26631D1*
X4250Y8172D2*
X5839D1*
X8971D2*
X10242D1*
X25343D2*
X26631D1*
X4250Y8073D2*
X5895D1*
X8966D2*
X10242D1*
X25326D2*
X26631D1*
X4250Y7975D2*
X5978D1*
X8941D2*
X10242D1*
X25280D2*
X26631D1*
X4250Y7876D2*
X5950D1*
X8891D2*
X10242D1*
X12345D2*
X12535D1*
X13345D2*
X13535D1*
X25193D2*
X26631D1*
X4250Y7777D2*
X5876D1*
X8871D2*
X10242D1*
X12137D2*
X12743D1*
X13137D2*
X13710D1*
X25095D2*
X26631D1*
X4250Y7679D2*
X5826D1*
X8871D2*
X11001D1*
X11879D2*
X13612D1*
X25054D2*
X26631D1*
X4250Y7580D2*
X5796D1*
X8871D2*
X11001D1*
X11879D2*
X13514D1*
X25084D2*
X26631D1*
X4250Y7481D2*
X5782D1*
X8871D2*
X11001D1*
X11879D2*
X13414D1*
X25098D2*
X26631D1*
X4250Y7383D2*
X5784D1*
X8871D2*
X11001D1*
X11879D2*
X13315D1*
X25096D2*
X26631D1*
X4250Y7284D2*
X5800D1*
X8871D2*
X11001D1*
X11879D2*
X13217D1*
X25080D2*
X26631D1*
X4250Y7185D2*
X5832D1*
X8871D2*
X11001D1*
X11879D2*
X13118D1*
X25048D2*
X26631D1*
X4250Y7086D2*
X5885D1*
X8871D2*
X10242D1*
X12187D2*
X12693D1*
X25110D2*
X26631D1*
X4250Y6988D2*
X5964D1*
X8871D2*
X10242D1*
X12366D2*
X12514D1*
X25209D2*
X26631D1*
X4250Y6889D2*
X5962D1*
X8871D2*
X10242D1*
X25290D2*
X26631D1*
X4250Y6790D2*
X5884D1*
X8871D2*
X10242D1*
X25330D2*
X26631D1*
X4250Y6692D2*
X5832D1*
X8871D2*
X10242D1*
X25345D2*
X26631D1*
X4250Y6593D2*
X5800D1*
X8871D2*
X10242D1*
X25345D2*
X26631D1*
X4250Y6494D2*
X5784D1*
X8871D2*
X10242D1*
X25345D2*
X26631D1*
X4250Y6396D2*
X5782D1*
X8871D2*
X10242D1*
X25345D2*
X26631D1*
X4250Y6297D2*
X5796D1*
X8871D2*
X10242D1*
X25345D2*
X26631D1*
X4250Y6198D2*
X5828D1*
X8871D2*
X10242D1*
X25345D2*
X26631D1*
X4250Y6100D2*
X5878D1*
X8871D2*
X10242D1*
X25345D2*
X26631D1*
X4250Y6001D2*
X5953D1*
X8871D2*
X10242D1*
X25345D2*
X26631D1*
X4250Y5902D2*
X5421D1*
X5788D2*
X5975D1*
X8871D2*
X10242D1*
X18460D2*
X19431D1*
X25345D2*
X26631D1*
X4250Y5804D2*
X5260D1*
X8871D2*
X10242D1*
X18535D2*
X19439D1*
X25345D2*
X26631D1*
X4250Y5705D2*
X5178D1*
X8871D2*
X10242D1*
X18585D2*
X19468D1*
X25345D2*
X26631D1*
X4250Y5606D2*
X5129D1*
X8871D2*
X10242D1*
X18618D2*
X19523D1*
X25345D2*
X26631D1*
X4250Y5507D2*
X5106D1*
X8871D2*
X10242D1*
X18635D2*
X19618D1*
X20251D2*
X20403D1*
X25345D2*
X26631D1*
X4250Y5409D2*
X5101D1*
X8868D2*
X10242D1*
X18638D2*
X19835D1*
X20034D2*
X20462D1*
X25345D2*
X26631D1*
X4250Y5310D2*
X5118D1*
X8838D2*
X10242D1*
X18626D2*
X20539D1*
X25345D2*
X26631D1*
X4250Y5211D2*
X5157D1*
X8777D2*
X10242D1*
X18599D2*
X20637D1*
X25345D2*
X26631D1*
X4250Y5113D2*
X5225D1*
X8680D2*
X10242D1*
X18555D2*
X20746D1*
X25345D2*
X26631D1*
X4250Y5014D2*
X5345D1*
X5865D2*
X5940D1*
X8580D2*
X10242D1*
X18491D2*
X22940D1*
X25345D2*
X26631D1*
X4250Y4915D2*
X5989D1*
X8482D2*
X10242D1*
X18448D2*
X22989D1*
X25343D2*
X26631D1*
X4250Y4817D2*
X5901D1*
X8384D2*
X10242D1*
X18526D2*
X22901D1*
X25324D2*
X26631D1*
X4250Y4718D2*
X5843D1*
X8285D2*
X10242D1*
X18580D2*
X22843D1*
X25276D2*
X26631D1*
X4250Y4619D2*
X5806D1*
X8187D2*
X10242D1*
X18615D2*
X22806D1*
X25187D2*
X26631D1*
X4250Y4521D2*
X5785D1*
X8095D2*
X10242D1*
X18634D2*
X22785D1*
X25095D2*
X26631D1*
X4250Y4422D2*
X5781D1*
X8099D2*
X10242D1*
X18638D2*
X22781D1*
X25099D2*
X26631D1*
X4250Y4323D2*
X5792D1*
X8088D2*
X10242D1*
X18629D2*
X22792D1*
X25088D2*
X26631D1*
X6423Y26236D2*
X6609D1*
X6612Y26372D1*
X6621Y26421D1*
X6637Y26469D1*
X6658Y26514D1*
X6685Y26556D1*
X6724Y26601D1*
X7045Y26923D1*
X7046Y27390D1*
X6334Y27389D1*
Y26235D1*
X6423Y26236D1*
X6765Y24269D2*
X6377D1*
X6334Y24240D1*
Y23838D1*
X6370Y23783D1*
X6393Y23739D1*
X6410Y23692D1*
X6423Y23643D1*
X6431Y23594D1*
X6433Y23514D1*
X6493Y23533D1*
X6490Y23559D1*
X6468Y23604D1*
X6451Y23651D1*
X6438Y23699D1*
X6430Y23749D1*
X6427Y23798D1*
X6430Y23848D1*
X6437Y23898D1*
X6450Y23946D1*
X6467Y23993D1*
X6488Y24038D1*
X6515Y24081D1*
X6545Y24120D1*
X6579Y24157D1*
X6617Y24189D1*
X6658Y24218D1*
X6702Y24243D1*
X6767Y24269D1*
X6019Y18566D2*
Y19406D1*
X6022Y19456D1*
X6033Y19504D1*
X6050Y19551D1*
X6074Y19595D1*
X6103Y19635D1*
X6138Y19671D1*
X6178Y19701D1*
X6222Y19726D1*
X6268Y19744D1*
X6317Y19755D1*
X6373Y19760D1*
X7632D1*
X7682Y19756D1*
X7731Y19746D1*
X7778Y19728D1*
X7822Y19705D1*
X7862Y19675D1*
X7898Y19640D1*
X7928Y19600D1*
X7953Y19557D1*
X7971Y19510D1*
X7982Y19462D1*
X7986Y19406D1*
Y18995D1*
X8061Y18981D1*
X8109Y18967D1*
X8155Y18947D1*
X8199Y18923D1*
X8240Y18895D1*
X8278Y18863D1*
X8313Y18827D1*
X8343Y18788D1*
X8370Y18745D1*
X8393Y18701D1*
X8410Y18654D1*
X8423Y18606D1*
X8431Y18556D1*
X8434Y18502D1*
X8431Y18453D1*
X8424Y18403D1*
X8411Y18355D1*
X8394Y18302D1*
Y17627D1*
X8391Y17578D1*
X8383Y17528D1*
X8369Y17480D1*
X8351Y17434D1*
X8327Y17390D1*
X8298Y17349D1*
X8266Y17311D1*
X8229Y17277D1*
X8189Y17248D1*
X8145Y17223D1*
X8100Y17202D1*
X8052Y17188D1*
X8003Y17178D1*
X7940Y17173D1*
X6315D1*
X6265Y17176D1*
X6216Y17184D1*
X6168Y17198D1*
X6121Y17217D1*
X6077Y17241D1*
X6036Y17269D1*
X5959Y17342D1*
X5135Y18165D1*
X5045Y18148D1*
X4945Y18141D1*
X4845Y18147D1*
X4770Y18160D1*
X4769Y17720D1*
X4855Y17734D1*
X4945Y17739D1*
X5035Y17733D1*
X5123Y17718D1*
X5209Y17692D1*
X5292Y17657D1*
X5371Y17613D1*
X5444Y17560D1*
X5510Y17500D1*
X5569Y17432D1*
X5621Y17358D1*
X5663Y17279D1*
X5697Y17196D1*
X5721Y17109D1*
X5735Y17020D1*
X5739Y16930D1*
X5733Y16840D1*
X5717Y16752D1*
X5690Y16666D1*
X5655Y16583D1*
X5610Y16505D1*
X5557Y16432D1*
X5496Y16366D1*
X5428Y16307D1*
X5354Y16257D1*
X5274Y16214D1*
X5191Y16181D1*
X5104Y16158D1*
X5015Y16145D1*
X4925Y16141D1*
X4835Y16148D1*
X4769Y16160D1*
Y10833D1*
X5085Y10834D1*
X5924D1*
X5981Y10899D1*
X6026Y10940D1*
X5967Y10995D1*
X5924Y11047D1*
X5642Y11046D1*
X5607Y11021D1*
X5563Y10997D1*
X5517Y10977D1*
X5469Y10962D1*
X5420Y10952D1*
X5371Y10947D1*
X5321D1*
X5271Y10952D1*
X5222Y10961D1*
X5174Y10976D1*
X5128Y10996D1*
X5085Y11020D1*
X5043Y11049D1*
X5005Y11081D1*
X4971Y11117D1*
X4940Y11157D1*
X4914Y11199D1*
X4891Y11244D1*
X4874Y11290D1*
X4861Y11339D1*
X4853Y11388D1*
X4851Y11438D1*
X4853Y11488D1*
X4860Y11537D1*
X4873Y11586D1*
X4890Y11633D1*
X4912Y11678D1*
X4938Y11720D1*
X4968Y11760D1*
X5003Y11796D1*
X5040Y11829D1*
X5081Y11858D1*
X5125Y11882D1*
X5171Y11902D1*
X5218Y11918D1*
X5267Y11928D1*
X5317Y11933D1*
X5367Y11934D1*
X5417Y11929D1*
X5466Y11919D1*
X5513Y11904D1*
X5559Y11885D1*
X5643Y11834D1*
X5924D1*
X5981Y11899D1*
X6026Y11940D1*
X5967Y11995D1*
X5904Y12073D1*
X5854Y12160D1*
X5818Y12253D1*
X5797Y12351D1*
X5791Y12450D1*
X5800Y12550D1*
X5824Y12647D1*
X5863Y12739D1*
X5894Y12791D1*
X5791D1*
Y14089D1*
X7089D1*
Y13988D1*
X7187Y14038D1*
X7282Y14070D1*
X7380Y14087D1*
X7480Y14088D1*
X7579Y14074D1*
X7675Y14045D1*
X7765Y14002D1*
X7847Y13946D1*
X7920Y13877D1*
X7927Y13869D1*
X9802D1*
X9852Y13866D1*
X9901Y13857D1*
X9940Y13846D1*
X9983Y13850D1*
Y14136D1*
X9930Y14119D1*
X9881Y14109D1*
X9831Y14104D1*
X9781D1*
X9731Y14109D1*
X9682Y14118D1*
X9635Y14133D1*
X9589Y14153D1*
X9545Y14177D1*
X9504Y14206D1*
X9466Y14238D1*
X9431Y14274D1*
X9401Y14314D1*
X9374Y14356D1*
X9352Y14401D1*
X9334Y14447D1*
X9322Y14496D1*
X9314Y14545D1*
X9311Y14595D1*
X9313Y14645D1*
X9321Y14694D1*
X9333Y14743D1*
X9350Y14790D1*
X9376Y14841D1*
Y22450D1*
X9379Y22500D1*
X9388Y22549D1*
X9402Y22597D1*
X9422Y22643D1*
X9447Y22686D1*
X9470Y22718D1*
X9572Y22824D1*
X10164Y23415D1*
X9034Y23416D1*
X9022Y23365D1*
Y20983D1*
X9018Y20933D1*
X9009Y20884D1*
X8993Y20836D1*
X8972Y20791D1*
X8945Y20749D1*
X8906Y20704D1*
X8429Y20226D1*
X8391Y20193D1*
X8350Y20165D1*
X8305Y20143D1*
X8258Y20126D1*
X8209Y20115D1*
X8150Y20111D1*
X4917D1*
X4770Y19962D1*
X4769Y19720D1*
X4875Y19736D1*
X4975Y19738D1*
X5074Y19728D1*
X5171Y19705D1*
X5265Y19670D1*
X5354Y19624D1*
X5436Y19567D1*
X5510Y19500D1*
X5576Y19424D1*
X5631Y19341D1*
X5676Y19252D1*
X5709Y19157D1*
X5730Y19060D1*
X5739Y18960D1*
X5737Y18890D1*
X5734Y18851D1*
X6019Y18566D1*
Y18574D1*
X5856Y20899D2*
X5768Y20990D1*
X5619Y21203D1*
X5586Y21267D1*
X5492Y21474D1*
X5425Y21725D1*
X5416Y21796D1*
X5399Y22023D1*
X5421Y22282D1*
X5437Y22352D1*
X5498Y22571D1*
X5608Y22807D1*
X5647Y22867D1*
X5780Y23052D1*
X5795Y23068D1*
X5724Y23096D1*
X5680Y23120D1*
X5639Y23149D1*
X5601Y23181D1*
X5566Y23217D1*
X5535Y23257D1*
X5509Y23299D1*
X5487Y23344D1*
X5469Y23391D1*
X5456Y23439D1*
X5449Y23489D1*
X5446Y23538D1*
X5448Y23588D1*
X5456Y23638D1*
X5468Y23686D1*
X5485Y23733D1*
X5507Y23778D1*
X5546Y23837D1*
Y26723D1*
X5480Y26727D1*
X5431Y26737D1*
X5383Y26752D1*
X5337Y26772D1*
X5294Y26796D1*
X5252Y26824D1*
X5214Y26857D1*
X5180Y26893D1*
X5149Y26932D1*
X5123Y26974D1*
X5100Y27019D1*
X5083Y27066D1*
X5065Y27147D1*
X4959Y27257D1*
X4931Y27299D1*
X4909Y27343D1*
X4892Y27391D1*
X4881Y27439D1*
X4877Y27499D1*
Y29391D1*
X4700Y29389D1*
Y30491D1*
X5841Y30489D1*
X5819Y30491D1*
X6511D1*
Y29389D1*
X6334D1*
Y28492D1*
X6710Y28491D1*
X6930D1*
X6792Y28634D1*
X6764Y28675D1*
X6741Y28720D1*
X6725Y28767D1*
X6714Y28816D1*
X6710Y28875D1*
Y29870D1*
X6672Y29927D1*
X6650Y29972D1*
X6633Y30019D1*
X6620Y30067D1*
X6612Y30116D1*
X6610Y30166D1*
X6612Y30216D1*
X6619Y30266D1*
X6632Y30314D1*
X6649Y30361D1*
X6670Y30406D1*
X6697Y30449D1*
X6727Y30488D1*
X6761Y30525D1*
X6799Y30557D1*
X6840Y30586D1*
X6884Y30611D1*
X6929Y30631D1*
X6977Y30646D1*
X7026Y30656D1*
X7076Y30662D1*
X7126D1*
X7175Y30657D1*
X7224Y30647D1*
X7272Y30633D1*
X7318Y30613D1*
X7362Y30589D1*
X7403Y30561D1*
X7441Y30529D1*
X7476Y30493D1*
X7507Y30453D1*
X7546Y30387D1*
X7612Y30432D1*
X7700Y30478D1*
X7794Y30514D1*
X7890Y30540D1*
X7989Y30556D1*
X8089Y30562D1*
X8188Y30557D1*
X8287Y30541D1*
X8384Y30515D1*
X8477Y30479D1*
X8566Y30433D1*
X8649Y30378D1*
X8726Y30315D1*
X8797Y30244D1*
X8859Y30165D1*
X8912Y30081D1*
X8957Y29991D1*
X8992Y29898D1*
X9016Y29801D1*
X9030Y29702D1*
X9034Y29617D1*
X9029Y29517D1*
X9013Y29419D1*
X8987Y29322D1*
X8951Y29229D1*
X8905Y29140D1*
X8850Y29057D1*
X8786Y28980D1*
X8715Y28909D1*
X8637Y28847D1*
X8552Y28794D1*
X8463Y28749D1*
X8369Y28715D1*
X8272Y28690D1*
X8173Y28676D1*
X8073Y28673D1*
X7974Y28680D1*
X7875Y28697D1*
X7790Y28722D1*
X7810Y28673D1*
X7824Y28625D1*
X7834Y28538D1*
Y28490D1*
X8011Y28491D1*
Y27389D1*
X7834D1*
Y26760D1*
X7831Y26710D1*
X7821Y26661D1*
X7806Y26614D1*
X7784Y26568D1*
X7757Y26526D1*
X7719Y26481D1*
X7474Y26236D1*
X7632D1*
X7682Y26233D1*
X7731Y26222D1*
X7778Y26205D1*
X7822Y26181D1*
X7862Y26152D1*
X7898Y26117D1*
X7928Y26077D1*
X7953Y26033D1*
X7971Y25987D1*
X7982Y25938D1*
X7986Y25882D1*
X7987Y24857D1*
X9170Y26040D1*
X9171Y29527D1*
Y29772D1*
X9174Y29822D1*
X9184Y29871D1*
X9199Y29919D1*
X9221Y29964D1*
X9248Y30006D1*
X9286Y30051D1*
X9454Y30219D1*
X9492Y30252D1*
X9533Y30280D1*
X9578Y30302D1*
X9625Y30319D1*
X9699Y30332D1*
X9700Y30439D1*
Y30491D1*
X10841Y30489D1*
X10819Y30491D1*
X10884D1*
X10883Y30888D1*
X10369Y30889D1*
X9700D1*
Y31064D1*
X9638Y31036D1*
X9590Y31022D1*
X9541Y31014D1*
X9393Y31011D1*
X9010D1*
X9011Y30889D1*
X7869Y30891D1*
X7861Y30889D1*
X7200D1*
Y31511D1*
X6510D1*
X6511Y30889D1*
X5369Y30891D1*
X5361Y30889D1*
X4700D1*
Y31991D1*
X5449D1*
X5456Y32037D1*
X5468Y32086D1*
X5485Y32133D1*
X5507Y32178D1*
X5533Y32220D1*
X5564Y32260D1*
X5598Y32296D1*
X5636Y32329D1*
X5677Y32358D1*
X5720Y32382D1*
X5766Y32402D1*
X5814Y32418D1*
X5862Y32428D1*
X5912Y32433D1*
X5962Y32434D1*
X6012Y32429D1*
X6061Y32419D1*
X6109Y32404D1*
X6183Y32369D1*
X8440D1*
X8490Y32366D1*
X8539Y32357D1*
X8587Y32343D1*
X8633Y32323D1*
X8676Y32298D1*
X8716Y32268D1*
X8752Y32234D1*
X8785Y32196D1*
X8812Y32154D1*
X8834Y32109D1*
X8851Y32062D1*
X8869Y31991D1*
X9011D1*
Y31867D1*
X9240Y31869D1*
X9317D1*
X9542Y32095D1*
X9579Y32128D1*
X9620Y32157D1*
X9664Y32181D1*
X9710Y32199D1*
X9759Y32212D1*
X9797Y32218D1*
X9945Y32221D1*
X10940D1*
X10990Y32218D1*
X11039Y32209D1*
X11087Y32195D1*
X11133Y32175D1*
X11176Y32150D1*
X11216Y32120D1*
X11252Y32086D1*
X11285Y32047D1*
X11300Y32025D1*
X11321Y31991D1*
X11511D1*
Y31821D1*
X11569Y31783D1*
X11607Y31751D1*
X11641Y31714D1*
X11671Y31674D1*
X11696Y31631D1*
X11715Y31585D1*
X11729Y31537D1*
X11738Y31488D1*
X11741Y31340D1*
Y28440D1*
X11738Y28390D1*
X11729Y28341D1*
X11715Y28293D1*
X11695Y28247D1*
X11670Y28204D1*
X11640Y28164D1*
X11606Y28128D1*
X11567Y28095D1*
X11525Y28068D1*
X11501Y28055D1*
X11471Y28001D1*
Y27929D1*
X11370D1*
X11369Y26920D1*
X11538Y26749D1*
X11572Y26712D1*
X11600Y26671D1*
X11624Y26627D1*
X11642Y26580D1*
X11655Y26532D1*
X11661Y26493D1*
X11664Y26346D1*
Y24625D1*
X11806Y24769D1*
Y30913D1*
X11809Y30962D1*
X11819Y31012D1*
X11834Y31059D1*
X11856Y31104D1*
X11883Y31146D1*
X11921Y31191D1*
X12771Y32041D1*
X12762Y32120D1*
X12765Y32220D1*
X12782Y32318D1*
X12813Y32413D1*
X12858Y32502D1*
X12887Y32545D1*
X12841Y32621D1*
X12801Y32712D1*
X12774Y32808D1*
X12762Y32907D1*
X12765Y33007D1*
X12782Y33106D1*
X12790Y33140D1*
X4240D1*
Y20548D1*
X4476Y20784D1*
X4514Y20817D1*
X4555Y20845D1*
X4600Y20867D1*
X4647Y20884D1*
X4696Y20895D1*
X4755Y20899D1*
X5857D1*
X7686Y23460D2*
X7812Y23399D1*
X8025Y23250D1*
X8078Y23201D1*
X8230Y23046D1*
X8234Y23042D1*
Y23565D1*
X8237Y23615D1*
X8246Y23664D1*
X8262Y23711D1*
X8283Y23757D1*
X8310Y23799D1*
X8349Y23844D1*
X8594Y24089D1*
X8631Y24122D1*
X8673Y24150D1*
X8717Y24172D1*
X8764Y24189D1*
X8813Y24200D1*
X8873Y24204D1*
X10168D1*
X10247Y24252D1*
X10293Y24272D1*
X10341Y24288D1*
X10389Y24298D1*
X10439Y24303D1*
X10489Y24304D1*
X10539Y24299D1*
X10588Y24289D1*
X10636Y24274D1*
X10682Y24255D1*
X10726Y24231D1*
X10767Y24203D1*
X10806Y24169D1*
Y25572D1*
X10724Y25604D1*
X10680Y25628D1*
X10639Y25657D1*
X10601Y25689D1*
X10566Y25725D1*
X10535Y25765D1*
X10509Y25807D1*
X10487Y25852D1*
X10469Y25899D1*
X10451Y25979D1*
X9960Y26471D1*
X9959Y25877D1*
X9956Y25828D1*
X9946Y25779D1*
X9931Y25731D1*
X9909Y25686D1*
X9882Y25644D1*
X9844Y25599D1*
X7766Y23522D1*
X7729Y23489D1*
X7710Y23475D1*
X17668Y28451D2*
Y27310D1*
X17035D1*
X17034Y27121D1*
X17668D1*
Y25859D1*
X18757D1*
X18751Y25927D1*
X18757Y26026D1*
X18776Y26124D1*
X18810Y26218D1*
X18857Y26307D1*
X18916Y26387D1*
X18967Y26440D1*
X18901Y26511D1*
X18845Y26593D1*
X18801Y26683D1*
X18771Y26778D1*
X18754Y26877D1*
X18752Y26977D1*
X18765Y27076D1*
X18792Y27172D1*
X18832Y27263D1*
X18885Y27348D1*
X18950Y27424D1*
X18967Y27440D1*
X18901Y27511D1*
X18845Y27593D1*
X18801Y27683D1*
X18771Y27778D1*
X18754Y27877D1*
X18752Y27977D1*
X18765Y28076D1*
X18792Y28172D1*
X18832Y28263D1*
X18885Y28348D1*
X18950Y28424D1*
X18967Y28440D1*
X18901Y28511D1*
X18845Y28593D1*
X18801Y28683D1*
X18771Y28778D1*
X18754Y28877D1*
X18752Y28977D1*
X18765Y29076D1*
X18792Y29172D1*
X18832Y29263D1*
X18885Y29348D1*
X18950Y29424D1*
X18967Y29440D1*
X18901Y29511D1*
X18845Y29593D1*
X18801Y29683D1*
X18771Y29778D1*
X18754Y29877D1*
X18752Y29977D1*
X18765Y30076D1*
X18792Y30172D1*
X18832Y30263D1*
X18885Y30348D1*
X18950Y30424D1*
X18967Y30440D1*
X18901Y30511D1*
X18845Y30593D1*
X18801Y30683D1*
X18771Y30778D1*
X18754Y30877D1*
X18752Y30977D1*
X18765Y31076D1*
X18792Y31172D1*
X18832Y31263D1*
X18885Y31348D1*
X18950Y31424D1*
X18967Y31440D1*
X18901Y31511D1*
X18845Y31593D1*
X18801Y31683D1*
X18771Y31778D1*
X18754Y31877D1*
X18752Y31977D1*
X18765Y32076D1*
X18792Y32172D1*
X18832Y32263D1*
X18885Y32348D1*
X18950Y32424D1*
X18967Y32440D1*
X18901Y32511D1*
X18845Y32593D1*
X18801Y32683D1*
X18771Y32778D1*
X18754Y32877D1*
X18752Y32977D1*
X18765Y33076D1*
X18782Y33141D1*
X15840Y33140D1*
X14088D1*
X14109Y33055D1*
X14119Y32955D1*
X14117Y32890D1*
X14109Y32827D1*
X14461Y32476D1*
X15419Y31518D1*
X15452Y31481D1*
X15480Y31439D1*
X15502Y31395D1*
X15519Y31348D1*
X15530Y31299D1*
X15534Y31240D1*
X15536Y29121D1*
X16168D1*
Y27937D1*
X16410Y27938D1*
X16428Y28010D1*
X16447Y28056D1*
X16472Y28099D1*
X16502Y28139D1*
X16566Y28200D1*
Y29121D1*
X17668D1*
Y27980D1*
X15301Y27310D2*
X15066D1*
Y27565D1*
X15022Y27602D1*
X14862Y27762D1*
X14829Y27800D1*
X14801Y27841D1*
X14778Y27886D1*
X14761Y27933D1*
X14751Y27982D1*
X14746Y28041D1*
Y31077D1*
X14021Y31802D1*
X13992Y31759D1*
X14023Y31713D1*
X14068Y31624D1*
X14099Y31529D1*
X14116Y31430D1*
X14119Y31365D1*
X14111Y31266D1*
X14109Y31252D1*
X14423Y30939D1*
X14456Y30901D1*
X14484Y30860D1*
X14507Y30816D1*
X14524Y30768D1*
X14534Y30720D1*
X14539Y30660D1*
Y26237D1*
X14575Y26183D1*
X14597Y26138D1*
X14615Y26091D1*
X14628Y26043D1*
X14636Y25994D1*
X14639Y25940D1*
X14636Y25890D1*
X14629Y25841D1*
X14616Y25792D1*
X14599Y25745D1*
X14577Y25701D1*
X14550Y25658D1*
X14520Y25619D1*
X14486Y25582D1*
X14448Y25550D1*
X14407Y25521D1*
X14363Y25497D1*
X14317Y25477D1*
X14269Y25462D1*
X14220Y25452D1*
X14171Y25447D1*
X14121D1*
X14071Y25452D1*
X13999Y25468D1*
X13950Y25405D1*
X13893Y25348D1*
X13831Y25298D1*
X13763Y25256D1*
X13690Y25222D1*
X13614Y25197D1*
X13536Y25181D1*
X13456Y25175D1*
X13376Y25178D1*
X13297Y25190D1*
X13220Y25211D1*
X13146Y25241D1*
X13076Y25280D1*
X13011Y25327D1*
X12953Y25381D1*
X12900Y25442D1*
X12856Y25508D1*
X12819Y25579D1*
X12791Y25654D1*
X12772Y25732D1*
X12763Y25811D1*
X12762Y25891D1*
X12771Y25970D1*
X12790Y26048D1*
X12817Y26123D1*
X12853Y26195D1*
X12887Y26247D1*
X12841Y26321D1*
X12801Y26413D1*
X12774Y26509D1*
X12762Y26608D1*
X12765Y26708D1*
X12782Y26807D1*
X12813Y26901D1*
X12858Y26991D1*
X12887Y27034D1*
X12841Y27109D1*
X12801Y27200D1*
X12774Y27297D1*
X12762Y27396D1*
X12765Y27496D1*
X12782Y27594D1*
X12813Y27689D1*
X12858Y27778D1*
X12887Y27821D1*
X12841Y27896D1*
X12801Y27988D1*
X12774Y28084D1*
X12762Y28183D1*
X12765Y28283D1*
X12782Y28381D1*
X12813Y28476D1*
X12858Y28565D1*
X12887Y28608D1*
X12841Y28684D1*
X12801Y28775D1*
X12774Y28871D1*
X12762Y28970D1*
X12765Y29070D1*
X12782Y29169D1*
X12813Y29264D1*
X12858Y29353D1*
X12887Y29396D1*
X12841Y29471D1*
X12801Y29562D1*
X12774Y29659D1*
X12762Y29758D1*
X12765Y29858D1*
X12782Y29956D1*
X12813Y30051D1*
X12858Y30140D1*
X12887Y30183D1*
X12841Y30258D1*
X12801Y30350D1*
X12774Y30446D1*
X12762Y30545D1*
X12765Y30645D1*
X12782Y30744D1*
X12813Y30838D1*
X12858Y30928D1*
X12887Y30971D1*
X12859Y31015D1*
X12595Y30750D1*
X12594Y29963D1*
Y24839D1*
X18752D1*
X18751Y25000D1*
X17880Y25001D1*
X15440D1*
X15390Y25004D1*
X15341Y25012D1*
X15293Y25027D1*
X15247Y25046D1*
X15204Y25071D1*
X15164Y25101D1*
X15128Y25136D1*
X15095Y25174D1*
X15068Y25216D1*
X15046Y25260D1*
X15029Y25307D1*
X15017Y25356D1*
X15012Y25407D1*
X14929Y25409D1*
X14930Y26471D1*
X14929Y26510D1*
Y27022D1*
X15483D1*
Y27175D1*
X15426Y27200D1*
X15384Y27227D1*
X15345Y27259D1*
X15323Y27283D1*
X20895Y9697D2*
Y9839D1*
X20723Y9842D1*
X20674Y9850D1*
X20626Y9865D1*
X20580Y9885D1*
X20537Y9910D1*
X20505Y9933D1*
X20426Y10008D1*
X20339Y10041D1*
X20296Y10065D1*
X20254Y10093D1*
X20216Y10126D1*
X20182Y10162D1*
X20151Y10201D1*
X20125Y10244D1*
X20094Y10311D1*
X20095Y9643D1*
X20092Y9593D1*
X20083Y9544D1*
X20069Y9496D1*
X20049Y9450D1*
X20024Y9407D1*
X19994Y9367D1*
X19960Y9330D1*
X19922Y9298D1*
X19878Y9270D1*
X19946Y9196D1*
X19975Y9155D1*
X19998Y9111D1*
X20017Y9064D1*
X20030Y9016D1*
X20036Y8977D1*
X20038Y8830D1*
Y8484D1*
X20124Y8401D1*
X20153Y8371D1*
X20192Y8446D1*
X20221Y8487D1*
X20323Y8593D1*
X20335Y8605D1*
X20318Y8692D1*
X20315Y8742D1*
X20317Y8792D1*
X20325Y8842D1*
X20337Y8890D1*
X20354Y8937D1*
X20376Y8982D1*
X20402Y9025D1*
X20433Y9064D1*
X20467Y9101D1*
X20505Y9133D1*
X20546Y9162D1*
X20589Y9187D1*
X20635Y9207D1*
X20683Y9222D1*
X20732Y9232D1*
X20781Y9237D1*
X20831Y9238D1*
X20895Y9230D1*
Y9838D1*
X19991Y14831D2*
Y13953D1*
X20025Y13908D1*
X20050Y13865D1*
X20070Y13819D1*
X20084Y13771D1*
X20092Y13721D1*
X20095Y13574D1*
Y13397D1*
X20127Y13460D1*
X20156Y13501D1*
X20258Y13607D1*
X20515Y13863D1*
X20552Y13897D1*
X20593Y13925D1*
X20637Y13949D1*
X20683Y13967D1*
X20732Y13980D1*
X20781Y13987D1*
X20831Y13989D1*
X20881Y13984D1*
X20930Y13974D1*
X20977Y13958D1*
X21022Y13937D1*
X21065Y13911D1*
X21105Y13879D1*
X21132Y13873D1*
X21764D1*
X21828Y13902D1*
X21896Y13922D1*
X21935Y13986D1*
X21974Y14031D1*
X22224Y14281D1*
X22261Y14314D1*
X22303Y14342D1*
X22347Y14365D1*
X22394Y14381D1*
X22443Y14392D1*
X22502Y14396D1*
X23815D1*
X23865Y14393D1*
X23914Y14384D1*
X23961Y14368D1*
X24007Y14347D1*
X24049Y14320D1*
X24094Y14281D1*
X24301Y14074D1*
X24380Y14087D1*
X24460Y14089D1*
X24540Y14082D1*
X24618Y14064D1*
X24693Y14038D1*
X24765Y14002D1*
X24832Y13958D1*
X24892Y13906D1*
X24946Y13847D1*
X24992Y13781D1*
X25030Y13711D1*
X25059Y13636D1*
X25078Y13559D1*
X25088Y13480D1*
Y13400D1*
X25078Y13321D1*
X25059Y13243D1*
X25030Y13169D1*
X24992Y13098D1*
X24946Y13033D1*
X24892Y12974D1*
X24854Y12940D1*
X24920Y12877D1*
X24981Y12798D1*
X25030Y12711D1*
X25065Y12617D1*
X25084Y12519D1*
X25089Y12440D1*
X25082Y12340D1*
X25059Y12243D1*
X25021Y12151D1*
X25016Y12141D1*
X25134Y12023D1*
X25167Y11986D1*
X25195Y11944D1*
X25217Y11900D1*
X25234Y11853D1*
X25245Y11804D1*
X25249Y11745D1*
Y10855D1*
X25246Y10805D1*
X25237Y10756D1*
X25221Y10709D1*
X25200Y10664D1*
X25173Y10622D1*
X25134Y10577D1*
X25084Y10527D1*
X25089Y10440D1*
X25082Y10340D1*
X25059Y10243D1*
X25026Y10161D1*
X25219Y9969D1*
X25252Y9931D1*
X25280Y9890D1*
X25302Y9845D1*
X25319Y9798D1*
X25330Y9749D1*
X25334Y9690D1*
Y8190D1*
X25331Y8140D1*
X25321Y8091D1*
X25306Y8044D1*
X25284Y7998D1*
X25257Y7956D1*
X25219Y7911D1*
X25025Y7718D1*
X25049Y7665D1*
X25076Y7569D1*
X25089Y7470D1*
X25087Y7390D1*
X25072Y7291D1*
X25042Y7196D1*
X25026Y7161D1*
X25219Y6969D1*
X25252Y6931D1*
X25280Y6890D1*
X25302Y6845D1*
X25319Y6798D1*
X25330Y6749D1*
X25334Y6690D1*
Y4940D1*
X25331Y4890D1*
X25321Y4841D1*
X25306Y4794D1*
X25284Y4748D1*
X25257Y4706D1*
X25219Y4661D1*
X25083Y4526D1*
X25089Y4470D1*
X25087Y4390D1*
X25072Y4291D1*
X25057Y4239D1*
X25440Y4240D1*
X26640D1*
Y33140D1*
X22751D1*
X22770Y33055D1*
X22780Y32955D1*
X22778Y32890D1*
X22764Y32791D1*
X22735Y32696D1*
X22692Y32605D1*
X22654Y32546D1*
X22684Y32500D1*
X22729Y32411D1*
X22760Y32316D1*
X22777Y32218D1*
X22780Y32153D1*
X22773Y32053D1*
X22751Y31955D1*
X22715Y31862D1*
X22666Y31775D1*
X22654Y31759D1*
X22684Y31713D1*
X22729Y31624D1*
X22760Y31529D1*
X22777Y31430D1*
X22780Y31365D1*
X22773Y31266D1*
X22751Y31168D1*
X22715Y31075D1*
X22666Y30988D1*
X22654Y30971D1*
X22684Y30925D1*
X22729Y30836D1*
X22760Y30741D1*
X22777Y30643D1*
X22780Y30578D1*
X22773Y30478D1*
X22751Y30381D1*
X22715Y30287D1*
X22666Y30201D1*
X22654Y30184D1*
X22684Y30138D1*
X22729Y30049D1*
X22760Y29954D1*
X22777Y29855D1*
X22780Y29790D1*
X22773Y29691D1*
X22770Y29677D1*
X22985Y29464D1*
X23018Y29427D1*
X23046Y29385D1*
X23068Y29341D1*
X23085Y29294D1*
X23096Y29245D1*
X23100Y29186D1*
Y25569D1*
X23097Y25519D1*
X23088Y25470D1*
X23072Y25422D1*
X23051Y25377D1*
X23024Y25335D1*
X22985Y25290D1*
X22825Y25130D1*
X22787Y25097D1*
X22746Y25069D1*
X22701Y25046D1*
X22654Y25030D1*
X22605Y25019D1*
X22546Y25015D1*
X20875D1*
X20825Y25018D1*
X20776Y25027D1*
X20728Y25043D1*
X20683Y25064D1*
X20641Y25091D1*
X20596Y25130D1*
X20436Y25290D1*
X20403Y25327D1*
X20374Y25370D1*
X20359Y25380D1*
Y18792D1*
X20356Y18742D1*
X20347Y18693D1*
X20333Y18645D1*
X20313Y18599D1*
X20288Y18556D1*
X20265Y18524D1*
X20162Y18418D1*
X18811Y17066D1*
X18789Y17003D1*
X18765Y16954D1*
X18764Y15980D1*
X18792Y15975D1*
X19206D1*
X19278Y16008D1*
X19326Y16023D1*
X19375Y16034D1*
X19425Y16039D1*
X19474D1*
X19524Y16035D1*
X19573Y16025D1*
X19621Y16010D1*
X19668Y15990D1*
X19709Y16008D1*
X19756Y16023D1*
X19805Y16034D1*
X19855Y16039D1*
X19905D1*
X19955Y16035D1*
X20004Y16025D1*
X20052Y16010D1*
X20098Y15991D1*
X20142Y15967D1*
X20183Y15939D1*
X20221Y15906D1*
X20256Y15870D1*
X20286Y15831D1*
X20313Y15789D1*
X20336Y15744D1*
X20358Y15678D1*
X20724Y15311D1*
Y15814D1*
Y15845D1*
X21825D1*
Y14035D1*
X20724D1*
Y14190D1*
X20687Y14199D1*
X20640Y14217D1*
X20596Y14241D1*
X20556Y14270D1*
X20449Y14373D1*
X19991Y14830D1*
Y14539D1*
X18889Y13874D2*
X18891Y15011D1*
X18889Y15019D1*
Y15117D1*
X18592D1*
X18543Y15120D1*
X18493Y15128D1*
X18445Y15143D1*
X18400Y15163D1*
X18356Y15188D1*
X18325Y15211D1*
X18218Y15313D1*
X17999Y15537D1*
X17970Y15578D1*
X17946Y15622D1*
X17928Y15668D1*
X17915Y15717D1*
X17909Y15755D1*
X17906Y15903D1*
Y16767D1*
X17635Y16768D1*
X17340D1*
X16412Y15840D1*
X16375Y15807D1*
X16334Y15778D1*
X16290Y15754D1*
X16243Y15736D1*
X16195Y15723D1*
X16156Y15717D1*
X16009Y15714D1*
X15807D1*
X15736Y15680D1*
X15688Y15665D1*
X15639Y15655D1*
X15590Y15650D1*
X15540D1*
X15490Y15655D1*
X15441Y15665D1*
X15393Y15679D1*
X15319Y15715D1*
X14543Y15714D1*
X13884Y15055D1*
X13846Y15022D1*
X13781Y14979D1*
X13757Y14899D1*
X13739Y14852D1*
X13715Y14804D1*
X13716Y14700D1*
X13738Y14655D1*
X13756Y14608D1*
X13768Y14560D1*
X13776Y14511D1*
X13779Y14457D1*
X13777Y14407D1*
X13769Y14358D1*
X13755Y14305D1*
X14800Y14304D1*
X17345D1*
X17424Y14352D1*
X17469Y14372D1*
X17517Y14388D1*
X17566Y14398D1*
X17616Y14403D1*
X17665Y14404D1*
X17715Y14399D1*
X17764Y14389D1*
X17812Y14374D1*
X17858Y14355D1*
X17902Y14331D1*
X17943Y14303D1*
X17981Y14270D1*
X18016Y14234D1*
X18047Y14195D1*
X18074Y14153D1*
X18096Y14108D1*
X18114Y14061D1*
X18127Y14013D1*
X18134Y13964D1*
X18137Y13910D1*
X18131Y13834D1*
X18448D1*
Y13873D1*
X18890D1*
X18645Y9136D2*
X18646Y10213D1*
X18645Y10221D1*
Y10704D1*
X18576D1*
X18606Y10615D1*
X18624Y10517D1*
X18629Y10440D1*
X18621Y10340D1*
X18600Y10243D1*
X18564Y10149D1*
X18516Y10062D1*
X18455Y9983D1*
X18412Y9939D1*
X18470Y9880D1*
X18528Y9798D1*
X18574Y9709D1*
X18606Y9615D1*
X18624Y9517D1*
X18629Y9440D1*
X18621Y9340D1*
X18600Y9243D1*
X18564Y9149D1*
X18558Y9137D1*
X18646Y9138D1*
X10252Y8751D2*
X10251Y9251D1*
Y9569D1*
X10214Y9594D1*
X10108Y9697D1*
X9915Y9894D1*
X9887Y9935D1*
X9863Y9979D1*
X9845Y10025D1*
X9832Y10073D1*
X9826Y10112D1*
X9823Y10260D1*
Y12811D1*
X9625Y13010D1*
X8852Y13011D1*
X7928D1*
X7854Y12941D1*
X7913Y12884D1*
X7964Y12823D1*
X8007Y12756D1*
X8042Y12683D1*
X8067Y12608D1*
X8083Y12529D1*
X8089Y12450D1*
X8086Y12370D1*
X8072Y12291D1*
X8049Y12215D1*
X8017Y12142D1*
X7976Y12073D1*
X7926Y12010D1*
X7870Y11953D1*
X7854Y11940D1*
X7920Y11877D1*
X7981Y11798D1*
X8030Y11711D1*
X8065Y11617D1*
X8084Y11519D1*
X8089Y11440D1*
X8082Y11340D1*
X8059Y11243D1*
X8021Y11151D1*
X7970Y11065D1*
X7906Y10988D1*
X7854Y10941D1*
X7920Y10877D1*
X7981Y10798D1*
X8030Y10711D1*
X8065Y10617D1*
X8084Y10519D1*
X8089Y10440D1*
X8082Y10340D1*
X8059Y10243D1*
X8021Y10151D1*
X7970Y10065D1*
X7906Y9988D1*
X7854Y9941D1*
X7920Y9877D1*
X7981Y9798D1*
X8030Y9711D1*
X8065Y9617D1*
X8084Y9519D1*
X8089Y9440D1*
X8082Y9340D1*
X8059Y9243D1*
X8021Y9151D1*
X7970Y9065D1*
X7906Y8988D1*
X7854Y8941D1*
X7920Y8877D1*
X7981Y8798D1*
X8030Y8711D1*
X8065Y8617D1*
X8084Y8519D1*
X8089Y8461D1*
X8126Y8501D1*
X8164Y8534D1*
X8205Y8563D1*
X8248Y8587D1*
X8294Y8607D1*
X8341Y8623D1*
X8390Y8633D1*
X8440Y8638D1*
X8490Y8639D1*
X8540Y8634D1*
X8589Y8624D1*
X8637Y8609D1*
X8683Y8590D1*
X8727Y8566D1*
X8768Y8538D1*
X8806Y8505D1*
X8841Y8469D1*
X8871Y8430D1*
X8898Y8388D1*
X8921Y8343D1*
X8938Y8296D1*
X8951Y8248D1*
X8959Y8199D1*
X8962Y8145D1*
X8959Y8095D1*
X8952Y8046D1*
X8939Y7997D1*
X8922Y7950D1*
X8900Y7906D1*
X8861Y7847D1*
X8862Y7045D1*
Y5468D1*
X8859Y5418D1*
X8849Y5369D1*
X8834Y5322D1*
X8812Y5276D1*
X8785Y5234D1*
X8747Y5189D1*
X8083Y4525D1*
X8089Y4470D1*
X8087Y4390D1*
X8072Y4291D1*
X8057Y4239D1*
X8440Y4240D1*
X10251Y4241D1*
X10253Y6129D1*
X10251Y6301D1*
Y7129D1*
X11012D1*
X11011Y7340D1*
X11009Y7751D1*
X10251D1*
X10252Y9129D1*
X12440Y7966D2*
X12383Y7913D1*
X12319Y7865D1*
X12250Y7825D1*
X12177Y7793D1*
X12100Y7770D1*
X12022Y7756D1*
X11942Y7751D1*
X11869Y7755D1*
Y7126D1*
X11945Y7129D1*
X12044Y7121D1*
X12142Y7098D1*
X12235Y7062D1*
X12322Y7013D1*
X12401Y6952D1*
X12440Y6913D1*
X12486Y6958D1*
X12566Y7018D1*
X12654Y7066D1*
X12747Y7101D1*
X12845Y7122D1*
X12945Y7129D1*
X13044Y7121D1*
X13061Y7117D1*
X13728Y7785D1*
X13651Y7815D1*
X13580Y7853D1*
X13515Y7898D1*
X13455Y7951D1*
X13440Y7967D1*
X13383Y7913D1*
X13319Y7865D1*
X13250Y7825D1*
X13177Y7793D1*
X13100Y7770D1*
X13022Y7756D1*
X12942Y7751D1*
X12862Y7756D1*
X12783Y7769D1*
X12706Y7792D1*
X12633Y7824D1*
X12564Y7863D1*
X12499Y7911D1*
X12440Y7967D1*
X12333Y11005D2*
X12401Y10952D1*
X12440Y10913D1*
X12486Y10958D1*
X12547Y11005D1*
X12546Y11790D1*
X12547Y12535D1*
X12333Y12534D1*
X12334Y11918D1*
Y11004D1*
X13333Y11005D2*
X13401Y10952D1*
X13440Y10913D1*
X13486Y10958D1*
X13547Y11005D1*
X13546Y11790D1*
X13547Y12280D1*
X13333Y12278D1*
X13334Y11662D1*
Y11004D1*
X14333Y11005D2*
X14401Y10952D1*
X14440Y10913D1*
X14486Y10958D1*
X14547Y11005D1*
X14546Y11790D1*
X14547Y12024D1*
X14333Y12022D1*
X14334Y11406D1*
Y11005D1*
X15333D2*
X15401Y10952D1*
X15440Y10913D1*
X15486Y10958D1*
X15547Y11005D1*
X15546Y11745D1*
X15547Y11768D1*
X15333Y11766D1*
X15334Y11150D1*
Y11005D1*
X16333D2*
X16401Y10952D1*
X16440Y10913D1*
X16486Y10958D1*
X16547Y11005D1*
X16546Y11490D1*
X16547Y11512D1*
X16333Y11511D1*
X16334Y11005D1*
X19502Y24251D2*
X19308D1*
X19186Y24134D1*
X19145Y24106D1*
X19100Y24083D1*
X19053Y24066D1*
X19005Y24056D1*
X18945Y24051D1*
X12413D1*
X12431Y23964D1*
X12434Y23910D1*
X12431Y23860D1*
X12424Y23811D1*
X12411Y23762D1*
X12394Y23715D1*
X12372Y23671D1*
X12333Y23612D1*
X12334Y22810D1*
Y16524D1*
X12382Y16531D1*
X12530Y16534D1*
X12883Y16531D1*
X12933Y16522D1*
X12980Y16508D1*
X13026Y16488D1*
X13070Y16463D1*
X13101Y16440D1*
X13208Y16338D1*
X13580Y15965D1*
X14062Y16446D1*
X14099Y16480D1*
X14140Y16508D1*
X14184Y16532D1*
X14231Y16550D1*
X14279Y16563D1*
X14318Y16569D1*
X14465Y16572D1*
X15320D1*
X15390Y16605D1*
X15437Y16621D1*
X15486Y16631D1*
X15536Y16636D1*
X15586Y16637D1*
X15636Y16632D1*
X15685Y16622D1*
X15732Y16607D1*
X15807Y16572D1*
X15931D1*
X16860Y17501D1*
X16897Y17534D1*
X16938Y17563D1*
X16982Y17586D1*
X17028Y17605D1*
X17077Y17618D1*
X17115Y17624D1*
X17263Y17626D1*
X18090D1*
X18161Y17660D1*
X18209Y17677D1*
X19500Y18969D1*
X19501Y24253D1*
X20127Y25890D2*
X20117Y25814D1*
X20166Y25788D1*
X20206Y25758D1*
X20242Y25724D1*
X20274Y25685D1*
X20314Y25619D1*
X20321D1*
Y26545D1*
X20003Y26546D1*
X19955Y26483D1*
X19912Y26439D1*
X19970Y26380D1*
X20028Y26298D1*
X20074Y26209D1*
X20106Y26115D1*
X20124Y26017D1*
X20129Y25940D1*
X20127Y25890D1*
X19913Y27440D2*
X19970Y27380D1*
X20005Y27334D1*
X20482D1*
X20481Y27630D1*
Y30341D1*
X20096Y30727D1*
X20064Y30649D1*
X20016Y30562D1*
X19955Y30483D1*
X19912Y30439D1*
X19970Y30380D1*
X20028Y30298D1*
X20074Y30209D1*
X20106Y30115D1*
X20124Y30017D1*
X20129Y29940D1*
X20121Y29840D1*
X20100Y29743D1*
X20064Y29649D1*
X20016Y29562D1*
X19955Y29483D1*
X19912Y29439D1*
X19970Y29380D1*
X20028Y29298D1*
X20074Y29209D1*
X20106Y29115D1*
X20124Y29017D1*
X20129Y28940D1*
X20121Y28840D1*
X20100Y28743D1*
X20064Y28649D1*
X20016Y28562D1*
X19955Y28483D1*
X19912Y28439D1*
X19970Y28380D1*
X20028Y28298D1*
X20074Y28209D1*
X20106Y28115D1*
X20124Y28017D1*
X20129Y27940D1*
X20121Y27840D1*
X20100Y27743D1*
X20064Y27649D1*
X20016Y27562D1*
X19955Y27483D1*
X19912Y27439D1*
X20127Y32890D2*
X20125Y32873D1*
X20311Y32688D1*
X21448Y31551D1*
X21475Y31626D1*
X21520Y31715D1*
X21548Y31758D1*
X21502Y31833D1*
X21462Y31925D1*
X21436Y32021D1*
X21423Y32120D1*
X21426Y32220D1*
X21443Y32318D1*
X21475Y32413D1*
X21520Y32502D1*
X21548Y32545D1*
X21502Y32621D1*
X21462Y32712D1*
X21436Y32808D1*
X21423Y32907D1*
X21426Y33007D1*
X21443Y33106D1*
X21453Y33140D1*
X20098D1*
X20117Y33066D1*
X20128Y32967D1*
X20127Y32890D1*
X18443Y5970D2*
X18412Y5939D1*
X18470Y5880D1*
X18528Y5798D1*
X18574Y5709D1*
X18606Y5615D1*
X18624Y5517D1*
X18629Y5440D1*
X18621Y5340D1*
X18600Y5243D1*
X18564Y5149D1*
X18516Y5062D1*
X18455Y4983D1*
X18412Y4939D1*
X18437Y4917D1*
X18489Y4856D1*
X18533Y4790D1*
X18570Y4719D1*
X18598Y4644D1*
X18617Y4566D1*
X18627Y4487D1*
Y4400D1*
X18618Y4321D1*
X18599Y4240D1*
X22823D1*
X22806Y4301D1*
X22792Y4400D1*
X22794Y4500D1*
X22810Y4599D1*
X22842Y4693D1*
X22888Y4782D1*
X22947Y4863D1*
X23018Y4933D1*
X23026Y4940D1*
X22967Y4995D1*
X22924Y5047D1*
X21990Y5046D1*
X20976D1*
X20926Y5049D1*
X20877Y5059D1*
X20829Y5074D1*
X20784Y5096D1*
X20742Y5123D1*
X20697Y5161D1*
X20537Y5321D1*
X20504Y5359D1*
X20476Y5400D1*
X20454Y5445D1*
X20433Y5502D1*
X20385Y5517D1*
X20297Y5560D1*
X20237Y5504D1*
X20196Y5476D1*
X20153Y5451D1*
X20107Y5432D1*
X20059Y5417D1*
X20010Y5406D1*
X19960Y5401D1*
X19910D1*
X19861Y5406D1*
X19812Y5416D1*
X19764Y5431D1*
X19718Y5451D1*
X19674Y5475D1*
X19633Y5503D1*
X19595Y5536D1*
X19561Y5572D1*
X19530Y5611D1*
X19503Y5653D1*
X19481Y5698D1*
X19464Y5745D1*
X19451Y5793D1*
X19443Y5843D1*
X19440Y5893D1*
X19447Y5969D1*
X18442D1*
X15951Y26176D2*
Y25857D1*
X16240Y25859D1*
X16290Y25860D1*
X16270Y25906D1*
X16256Y25954D1*
X16246Y26041D1*
Y26514D1*
X16222Y26460D1*
X16195Y26418D1*
X16156Y26373D1*
X15996Y26213D1*
X15951Y26172D1*
X15950Y25960D1*
X10510Y27929D2*
X10409Y27930D1*
X10370Y27929D1*
X10328D1*
Y27216D1*
X10512Y27033D1*
X10511Y27241D1*
Y27930D1*
X10420Y27929D1*
X21425Y25804D2*
X21423Y25871D1*
X21432Y25966D1*
X21108Y26290D1*
X21109Y25803D1*
X21426D1*
X21521Y26992D2*
X21548Y27034D1*
X21502Y27109D1*
X21462Y27200D1*
X21436Y27297D1*
X21423Y27396D1*
X21426Y27496D1*
X21443Y27594D1*
X21475Y27689D1*
X21520Y27778D1*
X21548Y27821D1*
X21502Y27896D1*
X21469Y27969D1*
X21444Y28045D1*
X21429Y28123D1*
X21423Y28203D1*
X21426Y28283D1*
X21439Y28362D1*
X21460Y28439D1*
X21491Y28513D1*
X21530Y28582D1*
X21549Y28610D1*
X21502Y28684D1*
X21462Y28775D1*
X21436Y28871D1*
X21423Y28970D1*
X21426Y29070D1*
X21443Y29169D1*
X21475Y29264D1*
X21520Y29353D1*
X21548Y29396D1*
X21502Y29471D1*
X21462Y29562D1*
X21436Y29659D1*
X21423Y29758D1*
X21426Y29858D1*
X21443Y29956D1*
X21475Y30051D1*
X21520Y30140D1*
X21548Y30183D1*
X21502Y30258D1*
X21462Y30350D1*
X21435Y30451D1*
X21245Y30640D1*
X21259Y30592D1*
X21269Y30505D1*
Y27244D1*
X21521Y26991D1*
X6025Y9941D2*
X5967Y9995D1*
X5924Y10047D1*
X4990Y10046D1*
X4535D1*
X4485Y10049D1*
X4436Y10059D1*
X4389Y10074D1*
X4343Y10096D1*
X4301Y10123D1*
X4240Y10178D1*
Y4240D1*
X5823D1*
X5806Y4301D1*
X5792Y4400D1*
X5794Y4500D1*
X5810Y4599D1*
X5842Y4693D1*
X5888Y4782D1*
X5947Y4863D1*
X6018Y4933D1*
X6026Y4940D1*
X5967Y4995D1*
X5924Y5047D1*
X5823Y4997D1*
X5777Y4977D1*
X5729Y4962D1*
X5680Y4952D1*
X5631Y4947D1*
X5581D1*
X5531Y4952D1*
X5482Y4961D1*
X5434Y4976D1*
X5388Y4996D1*
X5345Y5020D1*
X5303Y5049D1*
X5265Y5081D1*
X5231Y5117D1*
X5200Y5157D1*
X5174Y5199D1*
X5151Y5244D1*
X5134Y5290D1*
X5121Y5339D1*
X5113Y5388D1*
X5111Y5438D1*
X5113Y5488D1*
X5120Y5537D1*
X5133Y5586D1*
X5150Y5633D1*
X5172Y5678D1*
X5198Y5720D1*
X5228Y5760D1*
X5263Y5796D1*
X5300Y5829D1*
X5341Y5858D1*
X5385Y5882D1*
X5431Y5902D1*
X5478Y5918D1*
X5527Y5928D1*
X5577Y5933D1*
X5627Y5934D1*
X5677Y5929D1*
X5726Y5919D1*
X5773Y5904D1*
X5819Y5885D1*
X5903Y5834D1*
X5925D1*
X5981Y5899D1*
X6026Y5940D1*
X5967Y5995D1*
X5904Y6073D1*
X5854Y6160D1*
X5818Y6253D1*
X5797Y6351D1*
X5791Y6450D1*
X5800Y6550D1*
X5824Y6647D1*
X5863Y6739D1*
X5916Y6823D1*
X5981Y6899D1*
X6026Y6940D1*
X5967Y6995D1*
X5904Y7073D1*
X5854Y7160D1*
X5818Y7253D1*
X5797Y7351D1*
X5791Y7450D1*
X5800Y7550D1*
X5824Y7647D1*
X5863Y7739D1*
X5916Y7823D1*
X5981Y7899D1*
X6026Y7940D1*
X5967Y7995D1*
X5904Y8073D1*
X5854Y8160D1*
X5818Y8253D1*
X5797Y8351D1*
X5791Y8450D1*
X5800Y8550D1*
X5824Y8647D1*
X5863Y8739D1*
X5916Y8823D1*
X5981Y8899D1*
X6026Y8940D1*
X5967Y8995D1*
X5904Y9073D1*
X5854Y9160D1*
X5818Y9253D1*
X5797Y9351D1*
X5791Y9450D1*
X5800Y9550D1*
X5824Y9647D1*
X5863Y9739D1*
X5916Y9823D1*
X5981Y9899D1*
X6026Y9940D1*
X22792Y8414D2*
X22794Y8500D1*
X22797Y8526D1*
X22321Y9002D1*
X22322Y8588D1*
X22456Y8587D1*
X22506Y8584D1*
X22555Y8575D1*
X22602Y8559D1*
X22648Y8538D1*
X22690Y8511D1*
X22735Y8472D1*
X22791Y8416D1*
X12857Y14802D2*
X12832Y14851D1*
X12815Y14897D1*
X12802Y14946D1*
X12794Y14995D1*
X12791Y15045D1*
X12794Y15095D1*
X12801Y15144D1*
X12813Y15193D1*
X12831Y15240D1*
X12852Y15285D1*
X12879Y15327D1*
X12936Y15395D1*
X12655Y15677D1*
X12629Y15675D1*
X12630Y14700D1*
X12653Y14655D1*
X12670Y14608D1*
X12683Y14560D1*
X12691Y14511D1*
X12694Y14457D1*
X12691Y14407D1*
X12684Y14358D1*
X12670Y14305D1*
X12817Y14304D1*
X12802Y14356D1*
X12794Y14405D1*
X12791Y14455D1*
X12794Y14505D1*
X12801Y14554D1*
X12813Y14603D1*
X12831Y14650D1*
X12856Y14701D1*
Y14802D1*
X10903Y21460D2*
X10896Y21411D1*
X10883Y21362D1*
X10866Y21316D1*
X10842Y21267D1*
X10841Y19160D1*
Y13737D1*
X10900Y13780D1*
X10946Y13803D1*
X10939Y13858D1*
X10936Y13908D1*
X10938Y13958D1*
X10946Y14007D1*
X10958Y14056D1*
X10975Y14103D1*
X10997Y14148D1*
X11036Y14206D1*
Y22970D1*
X11039Y23020D1*
X11049Y23070D1*
X11043Y23082D1*
X10234Y22272D1*
Y21970D1*
X10286Y21988D1*
X10334Y21998D1*
X10384Y22003D1*
X10434Y22004D1*
X10484Y21999D1*
X10533Y21989D1*
X10581Y21974D1*
X10627Y21955D1*
X10671Y21931D1*
X10712Y21903D1*
X10750Y21870D1*
X10785Y21835D1*
X10815Y21795D1*
X10842Y21753D1*
X10865Y21708D1*
X10882Y21662D1*
X10895Y21613D1*
X10903Y21564D1*
X10906Y21510D1*
X10903Y21460D1*
X5399Y22014D2*
D20*
X7003D1*
X10271Y31440D2*
Y30889D1*
X6771Y28491D2*
Y27389D1*
X5271Y31991D2*
Y30889D1*
X4700Y31440D2*
X5271D1*
X17117Y29121D2*
Y28550D1*
X16567D2*
X17668D1*
X15617Y29121D2*
Y28550D1*
X16168D1*
X7771Y31440D2*
Y30889D1*
X7200Y31440D2*
X7771D1*
X17117Y27121D2*
Y26550D1*
X17668D1*
X20895Y9599D2*
X21446D1*
X18889Y15109D2*
X19440D1*
X21275Y15845D2*
Y15275D1*
X20724D2*
X21825D1*
X18645Y10312D2*
X19196D1*
X10940Y8440D2*
Y7752D1*
X10252Y8440D2*
X10940D1*
X11940D2*
Y7752D1*
X12940Y8440D2*
Y7752D1*
X10252Y4440D2*
X10940D1*
X17940D2*
X18628D1*
X4940Y17739D2*
Y16141D1*
Y16940D2*
X5739D1*
X19100Y6402D2*
Y5969D1*
X13440Y25853D2*
Y25175D1*
X12761Y25853D2*
X13440D1*
X21423Y28216D2*
X22101D1*
X7440Y12440D2*
X8089D1*
X24440Y14089D2*
Y13440D1*
X25089D1*
G36*
X6373Y24623D2*
Y25882D1*
X7632D1*
Y24623D1*
X6373D1*
G37*
G36*
Y18146D2*
Y19406D1*
X7632D1*
Y18146D1*
X6373D1*
G37*
G36*
X7003Y20764D2*
X6785Y20783D1*
X6575Y20840D1*
X6378Y20932D1*
X6199Y21057D1*
X6045Y21211D1*
X5920Y21389D1*
X5828Y21587D1*
X5771Y21797D1*
X5753Y22014D1*
D1*
X5771Y22231D1*
X5828Y22442D1*
X5920Y22639D1*
X6045Y22818D1*
X6199Y22972D1*
X6378Y23097D1*
X6575Y23189D1*
X6785Y23245D1*
X7003Y23264D1*
D1*
X7220Y23245D1*
X7430Y23189D1*
X7628Y23097D1*
X7806Y22972D1*
X7960Y22818D1*
X8085Y22639D1*
X8177Y22442D1*
X8234Y22231D1*
X8253Y22014D1*
X8234Y21797D1*
X8177Y21587D1*
X8085Y21389D1*
X7960Y21211D1*
X7806Y21057D1*
X7628Y20932D1*
X7430Y20840D1*
X7220Y20783D1*
X7003Y20764D1*
G37*
D24*
X10940Y31440D3*
X10271D3*
X7440Y27940D3*
X6771D3*
X5940Y31440D3*
X5271D3*
D25*
X17117Y27881D3*
Y28550D3*
X15617Y27881D3*
Y28550D3*
D24*
X8440Y31440D3*
X7771D3*
D25*
X17117Y25881D3*
Y26550D3*
X21446Y10268D3*
Y9599D3*
X19440Y14440D3*
Y15109D3*
X21275Y14605D3*
Y15275D3*
X19196Y9643D3*
Y10312D3*
D30*
X10940Y9440D3*
D31*
X11940D3*
X12940D3*
X13940D3*
X14940D3*
X15940D3*
X16940D3*
X17940D3*
D30*
X10940Y8440D3*
D31*
X11940D3*
X12940D3*
X13940D3*
X14940D3*
X15940D3*
X16940D3*
X17940D3*
D30*
X10940Y10440D3*
D31*
X11940D3*
X12940D3*
X13940D3*
X14940D3*
X15940D3*
X16940D3*
X17940D3*
D30*
X19444Y24936D3*
D31*
Y25936D3*
Y26936D3*
Y27936D3*
Y28936D3*
Y29936D3*
Y30936D3*
Y31936D3*
Y32936D3*
D30*
X10940Y6440D3*
D31*
X11940D3*
X12940D3*
X13940D3*
X14940D3*
X15940D3*
X16940D3*
X17940D3*
D30*
X10940Y4440D3*
D31*
X11940D3*
X12940D3*
X13940D3*
X14940D3*
X15940D3*
X16940D3*
X17940D3*
D30*
X10940Y5440D3*
D31*
X11940D3*
X12940D3*
X13940D3*
X14940D3*
X15940D3*
X16940D3*
X17940D3*
D32*
X4944Y18936D3*
Y16936D3*
D33*
X15440Y25940D3*
Y26491D3*
D34*
X10940Y28440D3*
X10389D3*
D24*
X5940Y29940D3*
X5271D3*
X10940D3*
X10271D3*
D37*
X21383Y8705D3*
Y8449D3*
Y8193D3*
Y7937D3*
Y7682D3*
Y7426D3*
Y7170D3*
Y6914D3*
Y6658D3*
Y6402D3*
X19100D3*
Y6658D3*
Y6914D3*
Y7170D3*
Y7426D3*
Y7682D3*
Y7937D3*
Y8193D3*
Y8449D3*
Y8705D3*
D42*
X13444Y32939D3*
Y32152D3*
Y31364D3*
Y30577D3*
Y29789D3*
Y29002D3*
Y28215D3*
Y27427D3*
Y26640D3*
Y25852D3*
X22105D3*
Y26640D3*
Y27427D3*
Y28215D3*
Y29002D3*
Y29789D3*
Y30577D3*
Y31364D3*
Y32152D3*
Y32939D3*
D44*
X6444Y13456D3*
D45*
Y12456D3*
Y11456D3*
Y10456D3*
Y9456D3*
Y8456D3*
Y7456D3*
Y6456D3*
Y5456D3*
Y4456D3*
D46*
X7444Y13456D3*
D45*
Y12456D3*
X24444Y4456D3*
Y5456D3*
Y6456D3*
Y7456D3*
Y8456D3*
Y9456D3*
Y10456D3*
Y11456D3*
Y12456D3*
Y13456D3*
X7444Y11456D3*
Y10456D3*
Y9456D3*
Y8456D3*
Y7456D3*
Y6456D3*
Y5456D3*
Y4456D3*
X23444D3*
Y5456D3*
Y6456D3*
Y7456D3*
Y8456D3*
Y9456D3*
Y10456D3*
Y11456D3*
Y12456D3*
Y13456D3*
D37*
X21440Y13440D3*
Y13184D3*
Y12928D3*
Y12672D3*
Y12416D3*
Y12160D3*
Y11905D3*
Y11649D3*
Y11393D3*
Y11137D3*
X19156D3*
X19157Y11393D3*
Y11649D3*
Y11905D3*
Y12160D3*
Y12416D3*
Y12672D3*
Y12928D3*
Y13184D3*
Y13440D3*
M02*
