G04 DipTrace 2.4.0.2*
%INBottomMask.gbr*%
%MOIN*%
%ADD24R,0.0433X0.0394*%
%ADD25R,0.0394X0.0433*%
%ADD30R,0.0669X0.0669*%
%ADD31C,0.0669*%
%ADD49C,0.1181*%
%ADD56C,0.0671*%
%ADD59C,0.073*%
%ADD69R,0.0789X0.0237*%
%ADD75C,0.097*%
%ADD77C,0.0749*%
%ADD78R,0.0749X0.0749*%
%ADD87R,0.0474X0.0513*%
%ADD88R,0.0513X0.0474*%
%FSLAX44Y44*%
G04*
G70*
G90*
G75*
G01*
%LNBotMask*%
%LPD*%
G36*
X6373Y24623D2*
Y25882D1*
X7632D1*
Y24623D1*
X6373D1*
G37*
G36*
Y18146D2*
Y19406D1*
X7632D1*
Y18146D1*
X6373D1*
G37*
G36*
X7003Y20764D2*
X6785Y20783D1*
X6575Y20840D1*
X6378Y20932D1*
X6199Y21057D1*
X6045Y21211D1*
X5920Y21389D1*
X5828Y21587D1*
X5771Y21797D1*
X5753Y22014D1*
D1*
X5771Y22231D1*
X5828Y22442D1*
X5920Y22639D1*
X6045Y22818D1*
X6199Y22972D1*
X6378Y23097D1*
X6575Y23189D1*
X6785Y23245D1*
X7003Y23264D1*
D1*
X7220Y23245D1*
X7430Y23189D1*
X7628Y23097D1*
X7806Y22972D1*
X7960Y22818D1*
X8085Y22639D1*
X8177Y22442D1*
X8234Y22231D1*
X8253Y22014D1*
X8234Y21797D1*
X8177Y21587D1*
X8085Y21389D1*
X7960Y21211D1*
X7806Y21057D1*
X7628Y20932D1*
X7430Y20840D1*
X7220Y20783D1*
X7003Y20764D1*
G37*
D88*
X10940Y31440D3*
X10271D3*
X7440Y27940D3*
X6771D3*
X5940Y31440D3*
X5271D3*
D87*
X17117Y27881D3*
Y28550D3*
X15617Y27881D3*
Y28550D3*
D88*
X8440Y31440D3*
X7771D3*
D87*
X17117Y25881D3*
Y26550D3*
X21446Y10268D3*
Y9599D3*
X19440Y14440D3*
Y15109D3*
X21275Y14605D3*
Y15275D3*
X19196Y9643D3*
Y10312D3*
D78*
X10940Y9440D3*
D77*
X11940D3*
X12940D3*
X13940D3*
X14940D3*
X15940D3*
X16940D3*
X17940D3*
D78*
X10940Y8440D3*
D77*
X11940D3*
X12940D3*
X13940D3*
X14940D3*
X15940D3*
X16940D3*
X17940D3*
D78*
X10940Y10440D3*
D77*
X11940D3*
X12940D3*
X13940D3*
X14940D3*
X15940D3*
X16940D3*
X17940D3*
D78*
X19444Y24936D3*
D77*
Y25936D3*
Y26936D3*
Y27936D3*
Y28936D3*
Y29936D3*
Y30936D3*
Y31936D3*
Y32936D3*
D78*
X10940Y6440D3*
D77*
X11940D3*
X12940D3*
X13940D3*
X14940D3*
X15940D3*
X16940D3*
X17940D3*
D78*
X10940Y4440D3*
D77*
X11940D3*
X12940D3*
X13940D3*
X14940D3*
X15940D3*
X16940D3*
X17940D3*
D78*
X10940Y5440D3*
D77*
X11940D3*
X12940D3*
X13940D3*
X14940D3*
X15940D3*
X16940D3*
X17940D3*
D75*
X4944Y18936D3*
Y16936D3*
D25*
X15440Y25940D3*
Y26491D3*
D24*
X10940Y28440D3*
X10389D3*
D88*
X5940Y29940D3*
X5271D3*
X10940D3*
X10271D3*
D49*
X8091Y29620D3*
D69*
X21383Y8705D3*
Y8449D3*
Y8193D3*
Y7937D3*
Y7682D3*
Y7426D3*
Y7170D3*
Y6914D3*
Y6658D3*
Y6402D3*
X19100D3*
Y6658D3*
Y6914D3*
Y7170D3*
Y7426D3*
Y7682D3*
Y7937D3*
Y8193D3*
Y8449D3*
Y8705D3*
D59*
X13444Y32939D3*
Y32152D3*
Y31364D3*
Y30577D3*
Y29789D3*
Y29002D3*
Y28215D3*
Y27427D3*
Y26640D3*
Y25852D3*
X22105D3*
Y26640D3*
Y27427D3*
Y28215D3*
Y29002D3*
Y29789D3*
Y30577D3*
Y31364D3*
Y32152D3*
Y32939D3*
D30*
X6444Y13456D3*
D56*
Y12456D3*
Y11456D3*
Y10456D3*
Y9456D3*
Y8456D3*
Y7456D3*
Y6456D3*
Y5456D3*
Y4456D3*
D31*
X7444Y13456D3*
D56*
Y12456D3*
X24444Y4456D3*
Y5456D3*
Y6456D3*
Y7456D3*
Y8456D3*
Y9456D3*
Y10456D3*
Y11456D3*
Y12456D3*
Y13456D3*
X7444Y11456D3*
Y10456D3*
Y9456D3*
Y8456D3*
Y7456D3*
Y6456D3*
Y5456D3*
Y4456D3*
X23444D3*
Y5456D3*
Y6456D3*
Y7456D3*
Y8456D3*
Y9456D3*
Y10456D3*
Y11456D3*
Y12456D3*
Y13456D3*
D69*
X21440Y13440D3*
Y13184D3*
Y12928D3*
Y12672D3*
Y12416D3*
Y12160D3*
Y11905D3*
Y11649D3*
Y11393D3*
Y11137D3*
X19156D3*
X19157Y11393D3*
Y11649D3*
Y11905D3*
Y12160D3*
Y12416D3*
Y12672D3*
Y12928D3*
Y13184D3*
Y13440D3*
M02*
