M48
INCH
T01C0.016
T02C0.0354
T03C0.0394
T04C0.0433
T05C0.052
T06C0.1181
%
T01
X+019452Y+015546
X+019883Y+015546
X+020523Y+015479
X+020225Y+016790
X+020225Y+018277
X+018335Y+017197
X+017565Y+016495
X+017311Y+016815
X+017446Y+015518
X+017270Y+015109
X+017223Y+014741
X+017643Y+013910
X+015564Y+016143
X+013875Y+014752
X+013285Y+015047
X+013285Y+014457
X+012200Y+014457
X+012300Y+013910
X+011940Y+013910
X+011430Y+013910
X+009805Y+014597
X+012605Y+015810
X+008984Y+018065
X+007940Y+018502
X+005315Y+021065
X+005940Y+023540
X+006921Y+023800
X+006556Y+024440
X+005554Y+027216
X+007104Y+030168
X+008875Y+031023
X+005940Y+031940
X+004326Y+030464
X+010940Y+026048
X+010467Y+023810
X+011580Y+022970
X+011940Y+023910
X+013440Y+024705
X+014145Y+025940
X+010412Y+021510
X+006855Y+012076
X+005345Y+011440
X+008468Y+008145
X+005605Y+005440
X+018495Y+008197
X+020809Y+008744
X+020556Y+010485
X+020786Y+012160
X+022003Y+013440
X+023076Y+010855
X+021998Y+006861
X+021383Y+005980
X+020556Y+005980
X+019934Y+005895
X+022925Y+006275
X+020225Y+025374
T02
X+006444Y+013456
X+006444Y+012456
X+007444Y+012456
X+007444Y+013456
X+007444Y+011456
X+007444Y+010456
X+006444Y+010456
X+006444Y+011456
X+006444Y+009456
X+006444Y+008456
X+006444Y+007456
X+007444Y+007456
X+007444Y+008456
X+007444Y+009456
X+007444Y+006456
X+007444Y+005456
X+006444Y+005456
X+006444Y+006456
X+006444Y+004456
X+007444Y+004456
X+023444Y+004456
X+024444Y+004456
X+024444Y+005456
X+024444Y+006456
X+023444Y+006456
X+023444Y+005456
X+023444Y+007456
X+023444Y+008456
X+023444Y+009456
X+024444Y+009456
X+024444Y+008456
X+024444Y+007456
X+024444Y+010456
X+024444Y+011456
X+023444Y+011456
X+023444Y+010456
X+023444Y+012456
X+023444Y+013456
X+024444Y+013456
X+024444Y+012456
T03
X+013444Y+032939
X+013444Y+032152
X+013444Y+031364
X+013444Y+030577
X+013444Y+029789
X+013444Y+029002
X+013444Y+028215
X+013444Y+027427
X+013444Y+026640
X+013444Y+025852
X+022105Y+025852
X+022105Y+026640
X+022105Y+027427
X+022105Y+028215
X+022105Y+029002
X+022105Y+029789
X+022105Y+030577
X+022105Y+031364
X+022105Y+032152
X+022105Y+032939
T04
X+010940Y+009440
X+010940Y+008440
X+011940Y+008440
X+011940Y+009440
X+012940Y+009440
X+012940Y+008440
X+013940Y+008440
X+013940Y+009440
X+014940Y+009440
X+014940Y+008440
X+015940Y+008440
X+015940Y+009440
X+016940Y+009440
X+016940Y+008440
X+017940Y+008440
X+017940Y+009440
X+017940Y+010440
X+016940Y+010440
X+015940Y+010440
X+014940Y+010440
X+013940Y+010440
X+012940Y+010440
X+011940Y+010440
X+010940Y+010440
X+010940Y+006440
X+010940Y+005440
X+011940Y+005440
X+011940Y+006440
X+012940Y+006440
X+012940Y+005440
X+013940Y+005440
X+013940Y+006440
X+014940Y+006440
X+014940Y+005440
X+015940Y+005440
X+015940Y+006440
X+016940Y+006440
X+016940Y+005440
X+017940Y+005440
X+017940Y+006440
X+017940Y+004440
X+016940Y+004440
X+015940Y+004440
X+014940Y+004440
X+013940Y+004440
X+012940Y+004440
X+011940Y+004440
X+010940Y+004440
X+019444Y+024936
X+019444Y+025936
X+019444Y+026936
X+019444Y+027936
X+019444Y+028936
X+019444Y+029936
X+019444Y+030936
X+019444Y+031936
X+019444Y+032936
T05
X+004944Y+018936
X+004944Y+016936
T06
X+008091Y+029620
T00
M30
